<svg xmlns="http://www.w3.org/2000/svg" viewBox="0 0 63.83 37.28"><defs><style>.cls-1{fill:#fff}.cls-1,.cls-2,.cls-3,.cls-4{fill-rule:evenodd}.cls-2{fill:#e66020}.cls-3{fill:#009744}.cls-4{fill:#005ba1}</style></defs><g id="Layer_1" data-name="Layer 1"><path d="M29.5,28.51v-3h.94a1,1,0,0,1,.67.23.79.79,0,0,1,.26.61.86.86,0,0,1-.13.46.79.79,0,0,1-.36.29,1.78,1.78,0,0,1-.64.09h-.32v1.28Zm.86-2.58h-.44v.92h.47a.62.62,0,0,0,.4-.12.45.45,0,0,0,.14-.35q0-.45-.57-.45Zm2.15.63a1,1,0,0,1,.74.29,1,1,0,0,1,.29.72.92.92,0,0,1-.3.7,1,1,0,0,1-.75.28,1,1,0,0,1-.73-.29.91.91,0,0,1-.3-.7,1,1,0,0,1,.3-.72,1,1,0,0,1,.75-.28Zm0,.35a.62.62,0,0,0-.64.64A.59.59,0,0,0,32,28a.62.62,0,0,0,.46.18A.64.64,0,0,0,33,28a.62.62,0,0,0,.18-.46.59.59,0,0,0-.19-.46.64.64,0,0,0-.47-.18Zm3.87-.35h.42l-.86,2h-.13l-.57-1.36-.57,1.36h-.13l-.86-2h.41l.51,1.19.49-1.19h.29l.5,1.19.5-1.19Zm2.27,1H37.26a.7.7,0,0,0,.18.45.64.64,0,0,0,.45.16,1.2,1.2,0,0,0,.7-.23v.37a1,1,0,0,1-.35.17,1.28,1.28,0,0,1-.41.05.91.91,0,0,1-.52-.13,1,1,0,0,1-.32-.36,1.11,1.11,0,0,1-.12-.52,1,1,0,0,1,.25-.73.84.84,0,0,1,.66-.28.78.78,0,0,1,.62.27,1.1,1.1,0,0,1,.23.73v.05Zm-1.36-.23h1a.54.54,0,0,0-.14-.36.45.45,0,0,0-.33-.13.49.49,0,0,0-.34.13.56.56,0,0,0-.17.36Zm2.19-.78V27l0,0c.19-.3.37-.45.56-.45a.68.68,0,0,1,.46.22l-.21.34a.55.55,0,0,0-.37-.19.38.38,0,0,0-.32.18.63.63,0,0,0-.14.42v1h-.39v-2Zm1.77-1H43.7v.38h-1v2.58h-.42V25.93h-1v-.38Zm3.1,1a1,1,0,0,1,.74.29,1,1,0,0,1,.3.72.92.92,0,0,1-.3.7,1,1,0,0,1-.75.28,1,1,0,0,1-.74-.29.93.93,0,0,1-.29-.7,1,1,0,0,1,.3-.72,1,1,0,0,1,.74-.28Zm0,.35a.61.61,0,0,0-.45.18.68.68,0,0,0,0,.92.7.7,0,0,0,.94,0,.62.62,0,0,0,.18-.46.63.63,0,0,0-.19-.46.68.68,0,0,0-.48-.18Zm2.75-1.36h1.68v.38H47.48v.9h1.21v.38H47.48v.93h1.3v.37H47.06v-3Zm3.71,1.55v1.41h-.38V27.42A.84.84,0,0,0,50.3,27a.33.33,0,0,0-.3-.13.4.4,0,0,0-.22.06.8.8,0,0,0-.23.2v1.41h-.39v-2h.39v.26a.81.81,0,0,1,.57-.3.64.64,0,0,1,.58.36.85.85,0,0,1,.64-.36.59.59,0,0,1,.47.21,1,1,0,0,1,.18.63v1.15h-.38V27.35a.65.65,0,0,0-.1-.37.34.34,0,0,0-.29-.13.58.58,0,0,0-.45.25Zm1.73,2.41v-3h.67a1.18,1.18,0,0,1,.81.26.93.93,0,0,1,.29.72,1,1,0,0,1-.27.73.94.94,0,0,1-.69.28,1.35,1.35,0,0,1-.42-.08v1Zm.67-2.59h-.28v1.2a.84.84,0,0,0,.37.09.6.6,0,0,0,.45-.18.73.73,0,0,0,.17-.49.74.74,0,0,0-.08-.34.63.63,0,0,0-.22-.21,1.08,1.08,0,0,0-.41-.07Zm2.46-.36a1,1,0,0,1,1,1,.92.92,0,0,1-.3.7,1,1,0,0,1-.75.28,1,1,0,0,1-.73-.29.91.91,0,0,1-.3-.7,1,1,0,0,1,.3-.72,1,1,0,0,1,.75-.28Zm0,.35a.62.62,0,0,0-.64.64.59.59,0,0,0,.19.46.63.63,0,0,0,.47.18.63.63,0,0,0,.46-.18.62.62,0,0,0,.18-.46.59.59,0,0,0-.19-.46.64.64,0,0,0-.47-.18Zm3.87-.35h.42l-.86,2h-.13l-.57-1.36-.57,1.36h-.13l-.86-2h.41l.51,1.19.5-1.19h.28l.5,1.19.5-1.19Zm2.27,1H60.38a.7.7,0,0,0,.18.45.64.64,0,0,0,.45.16,1.17,1.17,0,0,0,.7-.23v.37a1,1,0,0,1-.35.17,1.28,1.28,0,0,1-.41.05.91.91,0,0,1-.52-.13,1,1,0,0,1-.32-.36,1.11,1.11,0,0,1-.12-.52,1,1,0,0,1,.25-.73.84.84,0,0,1,.66-.28.78.78,0,0,1,.62.27,1.1,1.1,0,0,1,.23.73v.05Zm-1.36-.23h1a.54.54,0,0,0-.14-.36.45.45,0,0,0-.33-.13.49.49,0,0,0-.34.13.56.56,0,0,0-.17.36Zm2.19-.78V27l0,0c.19-.3.37-.45.56-.45a.68.68,0,0,1,.46.22l-.21.34a.55.55,0,0,0-.37-.19.38.38,0,0,0-.32.18.63.63,0,0,0-.14.42v1h-.39v-2Z" class="cls-1"/><path d="M19.26,27.48l-.81,1.41a17.41,17.41,0,0,1-6.7,6.52c-.28.14-.49.23-.77.35a7.76,7.76,0,0,0-.8.33,21.56,21.56,0,0,0,13-7.7C26,25,28.9,19.44,28.5,13.17c-.4-6-3.8-10.54-8.85-11.81C14.24,0,10.16,2.43,7.22,6.33a10.49,10.49,0,0,0-1,1.53c4-2,8.74-2.87,12.74,0,3.49,2.53,4.54,7.63,3.64,12.09a20.35,20.35,0,0,1-2.87,6.7c-.11.19-.46.64-.51.79Z" class="cls-2"/><path d="M5.31,35.85c-.37.27-1.82-.19-2.2-.25a7.48,7.48,0,0,0,3.3,1,11.84,11.84,0,0,0,3.77-.49,7.76,7.76,0,0,1,.8-.33c.28-.12.49-.21.77-.35a17.41,17.41,0,0,0,6.7-6.52l.81-1.41c.09-.29.31-.67.44-1a17.08,17.08,0,0,0,1.63-8.09,10.32,10.32,0,0,0-1.28-4.36A9.09,9.09,0,0,0,8.49,10.51a10.75,10.75,0,0,0-5,4.79c-.16.29-.29.63-.45.87a7.51,7.51,0,0,0,1-.49,12.5,12.5,0,0,1,3.5-1.14c3.33-.55,6.85.53,8.55,3.4a8.62,8.62,0,0,1,.84,5.13,17.79,17.79,0,0,1-3.61,8.65,16,16,0,0,1-1.49,1.59,13.46,13.46,0,0,1-1.73,1.3c-1.15.71-3.46,1.59-4.76,1.24Z" class="cls-3"/><path d="M3.11,35.6c.38.06,1.83.52,2.2.25a1.76,1.76,0,0,1-1.21-1.1c-.68-1.57-.1-4.44.28-6,.3-1.25.64-2.4,1-3.6l1.17-3.43H2A24.38,24.38,0,0,0,.87,25.31C.1,28.53-.75,34.08,3.11,35.6Z" class="cls-4"/><path d="M1.81,18.67l.34.38A3.49,3.49,0,0,1,3,18.41a2.82,2.82,0,0,1,2.5,0,2.36,2.36,0,0,1,.48.29c.19.13.25.25.43.36l.34-.36a3,3,0,0,0-1-.77,3.35,3.35,0,0,0-2.93,0,2.88,2.88,0,0,0-1,.77Z" class="cls-4"/><path d="M2.41,19.33l.35.39a2.12,2.12,0,0,1,2.35-.46,1.64,1.64,0,0,1,.63.46l.41-.46a2.74,2.74,0,0,0-1.89-.78,2.39,2.39,0,0,0-1.85.85Z" class="cls-4"/><path d="M3.08,20l.38.3.09-.07A1.25,1.25,0,0,1,4.26,20c.53,0,.64.22,1,.39L5.49,20a1.63,1.63,0,0,0-2.41,0Z" class="cls-4"/><path d="M3.67,20.61l.67.67.56-.65a.81.81,0,0,0-1.23,0Z" class="cls-4"/><path d="M31.52,19.5c2.44-.23,1.65,2.41.57,3a3.25,3.25,0,0,1-1.64.2l1.07-3.19Zm-2.25,4a10.85,10.85,0,0,0,3-.15c1.74-.74,2.25-3.26,1.37-4.2-.57-.62-1.95-.45-2.79-.46l-1.58,4.81Z" class="cls-1"/><path d="M36.34,23.85c.61-.19,1.34.46.49.63s-1.43-.35-.49-.63Zm1-2.88c.72-.24.45.9.06,1.07s-.59,0-.51-.44.18-.54.45-.63Zm-.93,1.47c-.31.08-.52.18-.62.42a.57.57,0,0,0,.2.75c-.8.3-1.05.86-.69,1.23.58.58,3.17.33,2.74-1.19-.21-.72-1.27-.43-1.46-.79.18-.41.58.09,1.43-.48A1.52,1.52,0,0,0,38.55,21H39l.19-.68c-1.09-.14-2.66-.16-3.05,1a1.19,1.19,0,0,0,0,.65.44.44,0,0,0,.1.23l.18.24Z" class="cls-1"/><path d="M56.85,22.74c-1.31.29-1.08-1.73.57-1.66a9.77,9.77,0,0,1-.57,1.66Zm.86-2.49c-1.21.08-2.17.25-2.53,1.65-.42,1.66,1,1.77,2.32,1.55l1.57-4.76h-.84l-.52,1.57Z" class="cls-1"/><path d="M45.23,21c-.1.42-.27.84-.4,1.25s-.11.33-.38.45c-1,.43-.75-.69-.36-1.19A1.1,1.1,0,0,1,45.23,21Zm-.77,2.21s0,0,0,.08,0,.1,0,.17h.8l1.06-3.16a3.62,3.62,0,0,0-2,.08c-2,.76-2,4.18.12,2.83Z" class="cls-1"/><path d="M62.52,21c-.08.4-.27.86-.39,1.26a.68.68,0,0,1-1,.45c-.29-.32.07-1.8,1.37-1.71Zm-.77,2.21v.25h.8l1.06-3.15a2.71,2.71,0,0,0-3.12,1c-.71,1.22-.24,2.88,1.25,1.86Z" class="cls-1"/><path d="M51.35,23.49h.84l.55-1.61c0-.07,0-.12,0-.17.08-.27.06-.28.34-.49.74-.54.86-.2.69.35l-.59,1.93H54l.7-2.05c0-.08,0-.14,0-.19.1-.45.05-.92-.38-1a1.79,1.79,0,0,0-1.22.36l.09-.3-.84,0-1.06,3.2Z" class="cls-1"/><path d="M41.54,20.29H41l-.26.7h.56c-.09.51-1.62,3.26,1,2.36l.15-.82a2,2,0,0,1-.49.15c-.56,0,.14-1.37.25-1.68h.65l.22-.7h-.6l.23-.66h-.85l-.23.67Z" class="cls-1"/><polygon points="49.55 23.48 50.44 23.5 52.05 18.69 51.14 18.68 49.55 23.48 49.55 23.48" class="cls-1"/><polygon points="46.08 23.48 46.91 23.5 48.51 18.68 47.67 18.68 46.08 23.48 46.08 23.48" class="cls-1"/><path d="M33.94,23.52h.85l1-3.24H35l-1,3.24ZM35.8,19c.23,0,.37.23.31.5a.62.62,0,0,1-.53.5c-.24,0-.38-.23-.32-.5a.64.64,0,0,1,.54-.5Z" class="cls-1"/><path d="M38.62,23.52h.85l1-3.24h-.85l-1,3.24ZM40.49,19c.23,0,.37.23.31.5a.63.63,0,0,1-.54.5c-.23,0-.37-.23-.31-.5a.62.62,0,0,1,.54-.5Z" class="cls-1"/><path d="M58.22,23.52h.85l1-3.24h-.85l-1,3.24ZM60.08,19c.23,0,.37.23.31.5a.62.62,0,0,1-.53.5c-.24,0-.38-.23-.32-.5a.64.64,0,0,1,.54-.5Z" class="cls-1"/><polygon points="63.26 24 38.59 24 38.59 24.32 63.26 24.32 63.26 24 63.26 24" class="cls-1"/><polygon points="34.14 24 29.11 24 29.11 24.32 34.14 24.32 34.14 24 34.14 24" class="cls-1"/></g></svg>