<svg xmlns="http://www.w3.org/2000/svg" viewBox="0 0 44.72 68.32"><defs><style>.cls-1{fill:none}.cls-2{fill:#fff}</style></defs><g id="Layer_1" data-name="Layer 1"><path d="M20.1,1.08a1.21,1.21,0,0,0-.41.09c-.19.07-.38.7-.57.63a1,1,0,0,0-.95-.19c-.31.14-.29.31-.75.31a2.26,2.26,0,0,0-1.53.1,1.09,1.09,0,0,0-.73,1.18c.15.49.09,1.3.22,1.53s.1.6-.29,1a13.89,13.89,0,0,0-.75,1.41c-.22.28-.57.11-.86,0a3.33,3.33,0,0,0-1.32-.48A1.6,1.6,0,0,1,10.76,6a2,2,0,0,0-1.34-.7,2.1,2.1,0,0,0-1.32.28c-.17.13-.47.56-.74.49a1.47,1.47,0,0,0-.91.2,3.06,3.06,0,0,0-1,.93,5.12,5.12,0,0,0-.51.87,2.58,2.58,0,0,1-.53.64A3.51,3.51,0,0,1,3,9.5a1.81,1.81,0,0,0-.83.55c-.31.31-.31,1-.4,1.47s-.69,1-.93,1.2a3,3,0,0,0-.75,1.82c.07.42.15.76.35.84s.35,0,.51.14A.45.45,0,0,1,1,16c-.06.08.55.69.78.81s.44.07.53.27a6.69,6.69,0,0,0,.5.93c.18.26.09.31.4.68s.62.59.81.84a6.34,6.34,0,0,1,.4.63c.16.18.65.12,1.11,0a1.51,1.51,0,0,0,.91-1c.06-.29.24-.5.24-.25s.15.83.13,1.18-.26.31-.42.6-.06.5-.12.77-.91.82-.94,1.76c0,.21.3.4,0,.69s-.21.57-.23,1.51c0,.63.23.46.09.69a1.47,1.47,0,0,0,.24,1.69c.35.39.42.2.24.6s.31,1.39.6,1.76,1,.63,1,1.29,1,1.21,1.11,1.28,0,1,.24,1.3,1,.42.76.92a5.29,5.29,0,0,0-.05,2.16,41.59,41.59,0,0,0,.77,4.21c.13.8-.59,1.68-.51,3.25s-.35,2.85-.77,2.91-1.13-.24-1.67,0-.66,1.15-.71,1.31-.89.42-1.09,1a2.29,2.29,0,0,0,.22,1.49c.09.18-.31.37-.5.47a1.22,1.22,0,0,0-.53.72c-.08.19-.3.11-.49.12a.91.91,0,0,0-.56.61,3.76,3.76,0,0,0-.05.69c0,.23-.17.3-.22.45s.08.87-.11,1.13a12.8,12.8,0,0,0-.06,1.47,2.67,2.67,0,0,0-.5.52,1.9,1.9,0,0,0,0,1.35c.15.26.73.2.69.45a9.41,9.41,0,0,0,.24,2.59,12.62,12.62,0,0,1,.75,1.71c.13.36.49.33.66.52a1,1,0,0,0,.78.3c.6,0,1.8.35,2.29.3.27,0,.55-.06.49,0a1.51,1.51,0,0,0-.17,2,2.89,2.89,0,0,0,1.57.82c.34.08,13,.36,13,.36s10.47-.09,11.09-.14a3.12,3.12,0,0,0,1.52-.42,2,2,0,0,0,1-1.67c-.08-.68-.13-1,0-1s1-.28,1.76-.54A4,4,0,0,0,40,62.79c.06-.17.13-.78.5-.88s.16-.53.25-.68.41-.18.41-.65a9.25,9.25,0,0,1,.24-1.84c.08-.21.38-.39.56-.51s.16-1.29.07-1.41-.63-.26-.7-.83c0-.27.07-.64.05-1s-.33-.38-.28-.63a1.12,1.12,0,0,0-.24-.77c-.18-.15-.43-.08-.45-.21a1,1,0,0,0-.43-.75c-.19-.11-.08-.25-.17-.51s-1.08-.52-.69-1.15a1.24,1.24,0,0,0-.65-1.74c-.23-.08-.06-.54-.29-.82a1.88,1.88,0,0,0-1.51-.79,4.17,4.17,0,0,1-1.29-.06,2.14,2.14,0,0,1-.53-1.45,7.26,7.26,0,0,0-.8-2.33,1.5,1.5,0,0,1,.11-1.6,8.78,8.78,0,0,0,.59-3.14c0-.55-.19-3.25,0-3.29.87-.17.23-.74.66-1s-.1-.55.32-.83A1.27,1.27,0,0,0,36.4,33c0-.3.45-.82.6-1.09s0-.61.09-.7c.38-.23,1.06-.84,1.06-1.19s-.31-.57,0-.83a2.86,2.86,0,0,0,.74-1.36c.11-.63-.54-.29,0-.93a1.94,1.94,0,0,0,.42-1.71c-.13-.45-.39-.38-.21-.76a1.48,1.48,0,0,0,.1-.71,2,2,0,0,0-.42-1c-.33-.42.19-.13.14-.59s-.47-.91-.58-1.16-.11-.47-.17-.66a4.46,4.46,0,0,0-.6-.81c-.15-.16-.34-.69.12-.67s.47.7.57,1a1.14,1.14,0,0,0,.69.59,1,1,0,0,0,.89-.12,8.37,8.37,0,0,0,.91-1c.22-.21.64-.42.74-.75a2,2,0,0,1,.54-.87c.27-.24.81-.54,1-.7a8.7,8.7,0,0,0,.89-.86,3.14,3.14,0,0,0,.77-1.35c.15-.59-.28-1.05-.68-1.6s-.55-.54-.8-.91-.07-.47-.08-1c0-1.58-1.43-1.85-2.33-2-.69-.13-1-.09-1-.35a8.4,8.4,0,0,0-.56-1.37,4.51,4.51,0,0,0-1.48-1.34,2.73,2.73,0,0,0-2-.44,4,4,0,0,0-1.59.78c-.74.63-.67,1.08-1,1.09A6.85,6.85,0,0,0,31.39,8c-.57.18-.66,0-.75-.2s0-.55-.32-1-.77-.5-.67-1.11a3,3,0,0,0-.15-1.74c-.2-.4-.39-.24-.39-.66A2,2,0,0,0,28.67,2a2.06,2.06,0,0,0-1.75-.38c-.53.08-.61.06-.72-.14a.94.94,0,0,0-1-.34c-.24.06-.37.34-.69.3s-.24-.39-.75-.29c-.29.06-.39.42-.6.25s-.34-.4-.52-.34-.25.35-.45.35S21.63,1,21.09,1.1a1.43,1.43,0,0,0-.5.16c-.27.1-.22-.16-.49-.18Z" class="cls-1"/><path d="M20.1,1.08a1.21,1.21,0,0,0-.41.09c-.19.07-.38.7-.57.63a1,1,0,0,0-.95-.19c-.31.14-.29.31-.75.31a2.26,2.26,0,0,0-1.53.1,1.09,1.09,0,0,0-.73,1.18c.15.49.09,1.3.22,1.53s.1.6-.29,1a13.89,13.89,0,0,0-.75,1.41c-.22.28-.57.11-.86,0a3.33,3.33,0,0,0-1.32-.48A1.6,1.6,0,0,1,10.76,6a2,2,0,0,0-1.34-.7,2,2,0,0,0-1.32.28c-.17.13-.47.56-.74.49a1.47,1.47,0,0,0-.91.2,3.06,3.06,0,0,0-1,.93,5.12,5.12,0,0,0-.51.87,2.58,2.58,0,0,1-.53.64A3.51,3.51,0,0,1,3,9.5a1.81,1.81,0,0,0-.83.55c-.31.31-.31,1-.4,1.47s-.69,1-.93,1.2a3,3,0,0,0-.75,1.82c.07.42.15.76.35.84s.35,0,.51.14A.45.45,0,0,1,1,16c-.06.08.55.69.78.81s.44.07.53.27a6.69,6.69,0,0,0,.5.93c.18.26.09.31.4.68s.62.59.81.84a6.34,6.34,0,0,1,.4.63c.16.18.65.12,1.11,0a1.51,1.51,0,0,0,.91-1c.06-.29.24-.5.24-.25s.15.83.13,1.18-.26.31-.42.6-.06.5-.12.77-.91.82-.94,1.76c0,.21.3.4,0,.69s-.21.57-.23,1.51c0,.63.23.46.09.69a1.47,1.47,0,0,0,.24,1.69c.35.39.42.2.24.6s.31,1.39.6,1.76,1,.63,1,1.29,1,1.21,1.11,1.28,0,1,.24,1.3,1,.42.76.92a5.29,5.29,0,0,0-.05,2.16,41.59,41.59,0,0,0,.77,4.21c.13.8-.59,1.68-.51,3.25s-.35,2.85-.77,2.91-1.13-.24-1.67,0-.66,1.15-.71,1.31-.89.42-1.09,1a2.29,2.29,0,0,0,.22,1.49c.09.18-.31.37-.5.47a1.22,1.22,0,0,0-.53.72c-.08.19-.3.11-.49.12a.91.91,0,0,0-.56.61,3.76,3.76,0,0,0-.05.69c0,.23-.17.3-.22.45s.08.87-.11,1.13a12.8,12.8,0,0,0-.06,1.47,2.67,2.67,0,0,0-.5.52,1.9,1.9,0,0,0,0,1.35c.15.26.73.2.69.45a9.41,9.41,0,0,0,.24,2.59,12.62,12.62,0,0,1,.75,1.71c.13.36.49.33.66.52a1,1,0,0,0,.78.3c.6,0,1.8.35,2.29.3.27,0,.55-.06.49,0a1.51,1.51,0,0,0-.17,2,2.89,2.89,0,0,0,1.57.82c.34.08,13,.36,13,.36s10.47-.09,11.09-.14a3.12,3.12,0,0,0,1.52-.42,2,2,0,0,0,1-1.67c-.08-.68-.13-1,0-1s1-.28,1.76-.54A4,4,0,0,0,40,62.79c.06-.17.13-.78.5-.88s.16-.53.25-.68.41-.18.41-.65a9.25,9.25,0,0,1,.24-1.84c.08-.21.38-.39.56-.51s.16-1.29.07-1.41-.63-.26-.7-.83c0-.27.07-.64.05-1s-.33-.38-.28-.63a1.12,1.12,0,0,0-.24-.77c-.18-.15-.43-.08-.45-.21a1,1,0,0,0-.43-.75c-.19-.11-.08-.25-.17-.51s-1.08-.52-.69-1.15a1.24,1.24,0,0,0-.65-1.74c-.23-.08-.06-.54-.29-.82a1.88,1.88,0,0,0-1.51-.79,4.17,4.17,0,0,1-1.29-.06,2.14,2.14,0,0,1-.53-1.45,7.26,7.26,0,0,0-.8-2.33,1.5,1.5,0,0,1,.11-1.6,8.78,8.78,0,0,0,.59-3.14c0-.55-.19-3.25,0-3.29.87-.17.23-.74.66-1s-.1-.55.32-.83A1.27,1.27,0,0,0,36.4,33c0-.3.45-.82.6-1.09s0-.61.09-.7c.38-.23,1.06-.84,1.06-1.19s-.31-.57,0-.83a2.86,2.86,0,0,0,.74-1.36c.11-.63-.54-.29,0-.93a1.94,1.94,0,0,0,.42-1.71c-.13-.45-.39-.38-.21-.76a1.48,1.48,0,0,0,.1-.71,2,2,0,0,0-.42-1c-.33-.42.19-.13.14-.59s-.47-.91-.58-1.16-.11-.47-.17-.66a4.46,4.46,0,0,0-.6-.81c-.15-.16-.34-.69.12-.67s.47.7.57,1a1.14,1.14,0,0,0,.69.59,1,1,0,0,0,.89-.12,8.37,8.37,0,0,0,.91-1c.22-.21.64-.42.74-.75a2,2,0,0,1,.54-.87c.27-.24.81-.54,1-.7a8.7,8.7,0,0,0,.89-.86,3.14,3.14,0,0,0,.77-1.35c.15-.59-.28-1.05-.68-1.6s-.55-.54-.8-.91-.07-.47-.08-1c0-1.58-1.43-1.85-2.33-2-.69-.13-1-.09-1-.35a8.4,8.4,0,0,0-.56-1.37,4.51,4.51,0,0,0-1.48-1.34,2.73,2.73,0,0,0-2-.44,4,4,0,0,0-1.59.78c-.74.63-.67,1.08-1,1.09A6.85,6.85,0,0,0,31.39,8c-.57.18-.66,0-.75-.2s0-.55-.32-1-.77-.5-.67-1.11a3,3,0,0,0-.15-1.74c-.2-.4-.39-.24-.39-.66A2,2,0,0,0,28.67,2a2.06,2.06,0,0,0-1.75-.38c-.53.08-.61.06-.72-.14a.94.94,0,0,0-1-.34c-.24.06-.37.34-.69.3s-.24-.39-.75-.29c-.29.06-.39.42-.6.25s-.34-.4-.52-.34-.25.35-.45.35S21.63,1,21.09,1.1a1.43,1.43,0,0,0-.5.16c-.27.1-.22-.16-.49-.18Zm5.35.69c.32,0,.23.41.18.57a7.63,7.63,0,0,0-.47,1.07c-.1.29-.42.55-.58.47s-.25-.27-.22-.77a1.64,1.64,0,0,1,.26-.82,1.13,1.13,0,0,1,.83-.52Zm-1.71,0c.22,0,.45.13.48.7S24,3,24,3.4s-.08.4.09.54.05.08,0,.09l.53.1c2.32.53,2.75,1.4,2.91,1.69.33.64.25,1.42.43,1.58a1.69,1.69,0,0,1,.48.91c.08.59-.84.83-1,1.23s-.2.34-.36.3c-.51-.16-.71-1.3-1.17-1.48-.22-.08,1.06-.46,1.42-.89s.13-.22-.64.07c-.58.22-1.67.65-2.32.22s.07-1.53.54-1.85a1.13,1.13,0,0,1,1.66.24c.67.65.68.69.76.66a3.1,3.1,0,0,0-1.19-1.44c-.81-.29-1.55-.2-2.49,1.13-.54.77.22,1,.34,1.57.17.77-.28.57-.38.7s-.15.12-.54.13-.35,0-.56-.15-.76.12-.61-.65c.11-.57.57-.69.24-1.57a1.77,1.77,0,0,0-2.5-1.16,5,5,0,0,0-1.47,1.3A3.45,3.45,0,0,0,19.25,6a1.27,1.27,0,0,1,1.63,0,1.08,1.08,0,0,1,0,1.64c-.64.45-1.11.19-1.71,0a4.65,4.65,0,0,0-1.3-.31c-.37.07-.09.17.05.17a1.34,1.34,0,0,1,.56.15,4.89,4.89,0,0,0,.68.49c.44.18,1,.07.89.16s-.66,0-1,1.18c-.06.21-.24.24-.4.38a1.28,1.28,0,0,1-.07.27c-.08.29-.14.13-.14.39s.35.12.29.68c0,.31.14.53-.21.41s-.28-.52-.6-.43c-.13,0,0,.23.19.31a.52.52,0,0,1,.27.39c.08.5-.09.71-.08,1.07s.11.43.48.52a1.68,1.68,0,0,1,1,.39c.26.29.05.63-.05.82s-.27.1-.46-.1.05-.48-.66-.66c-.5-.12-.51-.1-.71-.23s-.14-.5-.16-.82c0-.5.27-.22.22-.65s-.25-.24-.32-.65,0-.46.3-.72.27-.39.27-.39l0-.74c-.52-.55-1.23-.78-1.29-1.61,0-.3.25-.64.64-1,.19-.15-.11-.93.15-1.53s1.73-1.24,3.49-1.55h.09a.59.59,0,0,0,.12-.35A1.12,1.12,0,0,0,21,3.08a.86.86,0,0,1-.24-.73.43.43,0,0,1,.36-.42.67.67,0,0,1,.6.16.83.83,0,0,1,.2.85,3.5,3.5,0,0,1-.23.73.59.59,0,0,0-.07.31h0a6.88,6.88,0,0,1,1-.08s-.08-.11-.1-.36a.66.66,0,0,0-.11-.43,1,1,0,0,1,0-1,.55.55,0,0,1,.5-.15c.25.12.24.6.24.61a3.42,3.42,0,0,1,0,.87c-.17.34-.3.3-.22.46H23l.5,0h0s.12-.08.07-.35-.22-.34-.28-.65a1.28,1.28,0,0,1,.1-.83c.13-.28.27-.32.4-.32Zm-3.85.25a.67.67,0,0,1,.53.39,1.24,1.24,0,0,1,.11,1,.74.74,0,0,1-.29.5s-.14,0-.12-.12-.35-.51-.5-.72a.81.81,0,0,1-.14-.81.42.42,0,0,1,.41-.23Zm7.16.14a2,2,0,0,1,.34,0c.53.1.8.39.7.72s-.52.67-1.06.91c-.34.15-.34.31-.22.4s.41,0,.57.06c.49.2.65.69.74.71s.26-.17.09-.43-.52-.53-.55-.75.25-.44.61-.27.1.56.3.83a1.54,1.54,0,0,1,.4.85,1.33,1.33,0,0,1-.5,1c-.34.25-.15.31-.11.33s.21-.23.41-.11.27.31.48.59.49.34.55.86a1.52,1.52,0,0,1-.18.88c-.47.77,0,.53.22.79a.5.5,0,0,1,.11.49c-.06.42-.32.65,0,1.06.13.16.14.41,0,.48s0,.83-.14.92-.47-.33-.45,0,.33.35.25.57-.32.28-.39.18a2.64,2.64,0,0,0-.29-.55c-.09-.08-.28-.26-.16.1a2.09,2.09,0,0,0,.17.37c.07.12.05.2.06.54s0,.44-.14.51-.68-.46-.7-.66a.88.88,0,0,0-.15-.6c-.18-.22-.42-.8-.17-1.11s.35-.07.43,0c.26.37.3.07.14-.21s-.26-.12-.27-.39a2,2,0,0,1,.4-1.33A1.81,1.81,0,0,0,29,8.42a8.3,8.3,0,0,0-.74-1.16A.77.77,0,0,1,28,6.42c.1-.52.25-1.09.1-1.12s-.55-.65-.74-.58A1.9,1.9,0,0,1,26,4.21a.62.62,0,0,1,.35-.91c.56-.28.73.19.76-.07a.35.35,0,0,0-.45-.41c-.3.07-.48.06-.62.33s-.26.6-.43.61-.26-.27-.24-.41a1.55,1.55,0,0,1,.66-.9,1.94,1.94,0,0,1,1-.26Zm-8.78.07c.16,0,.32.08.64.31a2.16,2.16,0,0,1,.66,1c.13.28.15.42.09.56a.23.23,0,0,1-.35,0,3.82,3.82,0,0,0-.37-.51c-.16-.17-.23-.4-.5-.45s-.36-.15-.1.11a3.07,3.07,0,0,1,.6.75c.11.27-.08.23-.15.23a1.42,1.42,0,0,1-.47-.45.62.62,0,0,0-.55-.3c-.19,0-.38.3-.57.31s-.31-.07-.44,0,.35.19.44.34,0,.11-.21.35.21.21.4.17.33-.32.36-.43-.11-.45,0-.53.34.28.4.43.11.55,0,.63A5.63,5.63,0,0,0,17,6.12a2,2,0,0,0,0,1.12c0,.24-.36.68-.46.9a2.35,2.35,0,0,0,0,1.24c.12.3.4.76.51,1a.59.59,0,0,1-.14.68c-.33.32-.26-.3-.42.07a1.49,1.49,0,0,1-1,.76.57.57,0,0,1-.62-.25c-.1-.11.1-.28.29-.42s.16-.31.17-.52-.23-.34-.4-.55-.08-.74-.07-1,.18-.46.43-.35a.9.9,0,0,1,.36.84.63.63,0,0,0,.35.68c.2.06.34-.11.37-.43a2.13,2.13,0,0,0-.41-1c-.27-.38-.63-.28-.76-.8-.22-.87.09-1,.12-1.31s.16-.77.44-.79.51.18.47.68c-.07,1,.08.29.14.15a3.25,3.25,0,0,0,.26-.55.91.91,0,0,0-.29-.83.78.78,0,0,1-.18-.65c0-.2.14-.24.33-.35s.18-.29,0-.33-.21.07-.33.12-.19-.5-.2-.73a.68.68,0,0,1,.49-.67c.37-.18.46-.06.68,0a.55.55,0,0,0,.58-.16c.13-.14.19-.33.46-.37ZM22.56,3.9h0ZM20,6a1.31,1.31,0,0,0-.41.07,3.44,3.44,0,0,0-1,.66l-.42.34a.72.72,0,0,0,.5.11c.22-.06.57-.56.95-.7a.77.77,0,0,1,.87.35c.11.14.25.32.4.34s.2-.2.15-.2-.17-.56-.52-.81A.93.93,0,0,0,20,6ZM9.35,6.13h.16c.88.06.77.64.79,1,0,.17.46,0,.45.92,0,.74.25.21.16.84,0,.09-.21.06-.17.15.23.58-.18.65-.36.7s-.27.21-.18.29c.33.27.53.52.31.69s-.94-.11-.55.17.86,1.48.36,1.8c-.31.21-.62-.42-1.09-.49-.19,0-.19.17,0,.37s.88.55.91,1.17A1.48,1.48,0,0,1,9.63,15c-.42.14-.33-.21-.2-.45s.23-.25.07-.39,0-.26-.19-.34c-.35-.19-.72.07-1.15-.33-.2-.18-.22-.63,0-.66s.31.25.54.22.29-.7.1-.82a1.55,1.55,0,0,0-.91-.25c-.17,0-.31-.29-.19-.28a1.82,1.82,0,0,0,1.6-.95A2.42,2.42,0,0,0,8.93,9a1.39,1.39,0,0,0-.65-.56c-.2-.08-.55,0-.47,0a1.47,1.47,0,0,1,.79,2.41c-.9.69-1.38.32-1.12.15a1.34,1.34,0,0,0,.75-1.08c0-.28-.55-.69-1.2-.78s-1.09-.27-1.2-.91a.78.78,0,0,1,.82-1c.44.07.53.71.62.14,0-.21-.34-.41-.49-.5s0-.26.13-.28c.36,0,.57.47.81.38.65-.23.88-.8,1.63-.83Zm16.27,0c-.63,0-1,.79-1.11.94s.09.3.24.23c.38-.17.33-.71.95-.75s.63.47,1,.51.29-.11.08-.24-.49-.7-1.13-.69Zm10.46.27c.63,0,1.51.25,1.67.92.08.36-.54.84-.42.84a.89.89,0,0,0,.35-.11.58.58,0,0,0,.26-.21c.11-.16,0-.36.26-.37s.11.3.1.36a.31.31,0,0,1-.15.24c-.15.08-.19.13.06.1s.23-.3.44-.25.13.68.07.92-.25.75-.73.65-.93-.26-1,.1,0,.57-.07.77c-.12.38-.25.3-.35-.07-.05-.18-.15-.26-.17,0s0,.41-.24.53-1.26.18-1.54.75c-.16.31,0,.79-.18.94a.54.54,0,0,1-.82-.27A1.59,1.59,0,0,1,34.1,11c.35-.34.23-.55.55-.88.09-.09,0-.49-.12-.49-.34,0,0,.63-.31.55s-.6-.54-.43-.65c.34-.22,0-.81-.18-.81s-.08.51,0,.89A1.55,1.55,0,0,1,33,10.83c-.58.33-.95.08-1.24.21s-.35.11-.32.29.05.41-.11.49-1.11-.54-.77-1c.08-.1.32,0,.5-.09s.2-.57.61-.63a2.54,2.54,0,0,0,1.24-.42c.31-.35.3-.86.2-.91s0,.39-.27.54-.45,0-.84.17-1.07,1-1.38.89c-.15,0-.29-.3-.09-.72s.37-.56,1.14-1.13c.28-.2.8-.56,1.11-.38s.71,0,.9.13c.34.24.24.28.38-.09s0-.54.44-1.08a2.24,2.24,0,0,1,1.57-.71Zm-24.7.69c.52,0,1.59.58,1.4.66a2.5,2.5,0,0,1-1.46,0c-.15-.12-.27-.57-.12-.65a.48.48,0,0,1,.18,0Zm1.89.3a1,1,0,0,1,.78.36c.45.53.5,1.07.37.88s-.55-.34-.88-.52-.12-.31-.19-.43-.3-.28-.22-.29ZM12,8.12a3.29,3.29,0,0,1,1.12.27,5.37,5.37,0,0,1,1.29.94.9.9,0,0,1,.08,1c-.12.22-.45,0-.58-.43a2.62,2.62,0,0,0-.7-1.06c-.14-.12-.46-.11-.46,0s.42.42.6.67c.45.62.76,1.48.21,1.8-.21.11-.93-.08-.74.08s.07.43.24.56a1,1,0,0,1,.5,1.05.66.66,0,0,1-.74.53c-.19,0,.18-1-.21-1a1.2,1.2,0,0,1-1.19-.58c-.14-.38-.31-.27-.45-.35a.26.26,0,0,1-.07-.4.93.93,0,0,0,0-1c-.21-.22-.12-.53.13-.3s.22.85.8.93c.15,0,.43-.08.56.06a1.25,1.25,0,0,0,1,0c.14-.13-.08-.57-.49-.65s-1,.07-1.46-.23a.76.76,0,0,1-.22-1c.13-.17-.22-.4.17-.69A1.05,1.05,0,0,1,12,8.12Zm8.62.07c.15,0,.27,0,.28.38s-.12.71.11,1,.47,0,1,.35a2.33,2.33,0,0,0,.91.28c.3,0,.37-.31.73-.34s.24.19.6.28a1,1,0,0,0,1-.25c.25-.22.34-.16.42-.43s0-.29,0-.65.79.09.45,1a1.38,1.38,0,0,1-.8.79,2.2,2.2,0,0,1-1.7-.32c-.48-.3-.12.24.41.41,1,.35,1.26.21,1.56.06.52-.25.54-.64.91-.77s.3.3.06.69a1.27,1.27,0,0,1-1.16.65,2.69,2.69,0,0,1-1.23-.16,3.26,3.26,0,0,1-1.1-.67c-.26-.18-.13.14,0,.29a2.31,2.31,0,0,0,1.44.78,3.51,3.51,0,0,0,1.73-.09c.7-.24.51-.73,1-1,.19-.12.33.14.43.3a.72.72,0,0,1,0,.64c-.12.17-.28,0-.23-.15s-.27-.29-.35-.09a2.15,2.15,0,0,1-2.32,1.19,2.4,2.4,0,0,1-1.73-.82c-.21-.23-.22-.61-.43-.61s0,.12-.26.45a4.25,4.25,0,0,1-.89.81c-.32.25-.57.11-1.24.48-.32.18-.86.14-.82-.17s.56-.19.82-.33.09-.14-.13-.15A2.45,2.45,0,0,1,19,11.68c-.13-.06-.07-.26.26-.2a4.45,4.45,0,0,0,1.07.17,3.4,3.4,0,0,0,1.58-.42c.34-.15.51-.23.55-.47s-.12-.22-.44.09a3.54,3.54,0,0,1-2.08.38c-.54-.1-.67-.33-1-.73-.15-.2-.14-.44.09-.45s.39.64.71.76A2.49,2.49,0,0,0,21.3,11c.33-.09.66-.22.71-.42a.29.29,0,0,0-.15-.32c-.59-.28-.65-.06-1-.31s-.21-.5-.44-1.12a.41.41,0,0,1,.24-.59Zm4.25.18c.16,0,.31.14.31.41,0,.43,0,.84-.5,1.1s-.79-.22-.79-.22a1.69,1.69,0,0,0,.65-.29c.26-.22-.11-.69.1-.92a.26.26,0,0,1,.23-.08ZM5.17,8.69c.39,0,.52.55.9.72s1,.38,1.18.68c.34.67-.39.69-.46.77-.6.64-1.52.26-1.56.4s0,.2,0,.21c.33,0,1-.11,1.33.07a1.16,1.16,0,0,1,.75,1c0,.21.61-.18.14.62a1.7,1.7,0,0,0-.16.63,2.24,2.24,0,0,0,.17,1.47c.3.53.11.65-.13,1-.42.54.13,1.54-.18,1.58A1.18,1.18,0,0,0,6,18.74c-.34.87-.19-.11-.27-.09s-.29.52-.44.68a1.22,1.22,0,0,1-.85.15c-.19,0-.05-.66,0-.79.25-.54.34-.67.53-.67a2.72,2.72,0,0,0,.86-.1c.12,0,.15-.26.34-.42s-.16-.38-.06-.43.28-.34.35-.64a.76.76,0,0,0-.32-.79c-.23-.15-.8-.68-.83-.94S4.6,13.75,5,14A1.2,1.2,0,0,0,6.4,14a1.13,1.13,0,0,0,.51-.67c.06-.24-.16-.3-.23-.21a.92.92,0,0,1-1.1.49c-.38-.05-.37-.09-.1-.18s.34-.16.2-.25a3.67,3.67,0,0,0-1.81.07,9.76,9.76,0,0,1-1,.59c-.2,0-.54.11-.22-.17a6.06,6.06,0,0,1,.7-.57c.17-.12,0-.78.13-1s.25-.55,1.39-.55c.22,0-.2-.55-.5-.53-.15,0-.28-.52-.85-.51a1.09,1.09,0,0,0-.73.47c-.18.28-.23.93,0,.92s.39.23.39.53a.74.74,0,0,1-.57.82A.9.9,0,0,0,2,14a.83.83,0,0,1-.29.62.65.65,0,0,1-1.07-.38,2.07,2.07,0,0,1,.88-1.42c.27-.15.37.1.39-.29s.19-.68.41-.75,0-.89.07-1.1a2.49,2.49,0,0,1,1.22-.93,2.17,2.17,0,0,0,1-.38c.23-.24.28-.71.49-.71Zm14.59.54a.31.31,0,0,1,.17.07c.3.23,0,.34.42.74a1.84,1.84,0,0,0,1,.43,1.71,1.71,0,0,1-1,.12,1.57,1.57,0,0,1-1-.82.41.41,0,0,1,.38-.54Zm19.4.19a1.36,1.36,0,0,1,.65.19c1.73.94,2.12.46,2.44,1a4.29,4.29,0,0,1,.34.64,3,3,0,0,1,.08,1c.2.08.11.59.42.79a3,3,0,0,1,.67.59,1.4,1.4,0,0,1,.31,1c0,.21-.29.71-.53.6-.42-.19-.15-.71-.76-.92a2.75,2.75,0,0,0-.91-.12c-.14-.06-.07-.28-.1-.46a.36.36,0,0,0-.23-.3c-.19-.06-.27-.32-.16-.35s.57.64.79.37-.23-.22-.14-.6a.82.82,0,0,1,.38-.52l0,0c-.08-.12,0-.75-.09-1A1.61,1.61,0,0,0,42,11a.41.41,0,0,0-.55-.08,14.15,14.15,0,0,0-1.18,1.56c-.32.41-.44.36.5.83a.68.68,0,0,1,.35.95c0,.18-.11.33.28.33a2.18,2.18,0,0,1,.8.08,2.1,2.1,0,0,1,1,.79c.23.32.14.62-.05.53a6.68,6.68,0,0,1-.8-.75c-.17-.14-.39-.33-.58-.23s.06.28.22.42.85.81.59,1-.54-.37-.68-.57a1.41,1.41,0,0,0-.49-.54s.2.38.23.44a3,3,0,0,1,.28.78c0,.29.09.58-.13.58-.43,0-.22-.27-.49-.44a14.8,14.8,0,0,1-.92-1.3c0-.13.1-.22.17-.16a13,13,0,0,0,.81,1.17c.39.4.13-.16.07-.4,0-.06-.24-.67-.27-.74h0a4.65,4.65,0,0,1-.65-.72c-.39-.47-1-.07-1.09-.28,0,.07-.15.32-.26.49a3.85,3.85,0,0,0-.47,1.2c-.07.79-.35.45-.65.62s-.39.63.08,1.08,1.09.25,1.44.27.18.22.19.53a1.75,1.75,0,0,0,.4.86c.13.17-.13.34-.48.47a.66.66,0,0,1-.81-.26c-.11-.15,0-.53-.3-.8s-.86-.43-1.14-.72a4.47,4.47,0,0,1-.07-1.82c.06-.21-.23-.7-.05-.91s.74.25,1-.11c.09-.12.39-.36.5-.48.4-.43.56-.47.6-.42h0c-.06-.18-.47,0-.79.1s-1,.21-1.1,0,.16-.32.12-.74-.24-.5-.22-.8.14-.52.72-.56a2.73,2.73,0,0,1,1.3.23c.24.07.48.1.48-.06a1.79,1.79,0,0,0-1-.78.75.75,0,0,0-.63.11c-.15.09-.58,0-.6-.21s-.16-.24-.19-.51-.13-.69.42-.7c.36,0,.51-.73.9-.89a.63.63,0,0,1,.23,0Zm-21,.29s.2.31.3.33C18.35,10,18.28,9.88,18.11,9.71Zm.49.14a.61.61,0,0,0-.12.15l0,0a.7.7,0,0,0,.15-.18Zm-.17.19h0Zm-4,.45s.06,0,.08.1a1.27,1.27,0,0,1,0,.84c-.12.25-.31.39-.08.68a1.17,1.17,0,0,1,.14,1c-.06.19-.36.28-.37.12a.65.65,0,0,0-.17-.6c-.18-.17-.19-.45-.38-.54-.38-.17-.46-.37-.36-.48s.51,0,.79-.24.16-.58.24-.73.07-.1.1-.1Zm22.46.41c.14,0,.28.14.29.39s-.1.66-.33.61-.17,0-.4.22c-.38.37-.61.59-.68.89a.37.37,0,0,0,.29.52c.3.06-.07-.2.26-.58.11-.12.44-.4.72-.35.06,0,.22.22,0,.62-.11.2,0,.73-.18,1a1.89,1.89,0,0,1-1.29.73c-.53.07-.88.26-1,.44s.44.33.62.41,0,.35-.36.4a.89.89,0,0,1-.89-.69A2.46,2.46,0,0,1,34.48,14c.23-.18.44.23.63.3a1.67,1.67,0,0,0,1.11-.14c.14-.09.18-.3.06-.32-.3-.06-.61,0-.85-.13a2.76,2.76,0,0,1-.56-1c-.06-.19-.13-.52.14-.58a5.19,5.19,0,0,0,1.09-.47c.18-.12.44-.59.72-.67ZM33.46,11s0,0,0,0a2.9,2.9,0,0,1-.5,1.63c-.19.28-.63,0-.93.07s-.51.11-.56.38,0,.42-.22.37a.63.63,0,0,1-.43-.79c.08-.42.52-.59.63-.66s0-.51.14-.49a3.31,3.31,0,0,0,1.09-.06c.37-.1.63-.48.74-.5Zm-29.8.19a.49.49,0,0,1,.26.06c.11.08.16.26,0,.28-.45.08-.38-.1-.49-.11s-.25-.05-.22-.11.26-.13.45-.12Zm23.71.38c.05,0,.1,0,.14.16s-.06.52.1.76.07.44,0,.68-.39.36-.74.43a1,1,0,0,0-.66.67c-.17.43-.43.06-.42-.09s-.15-.57,0-.66a2.81,2.81,0,0,0,.82-.58c.19-.19,0-.15.12-.38s.25-.22.31-.31,0-.48.2-.61a.21.21,0,0,1,.14-.07Zm14.24.09a.37.37,0,0,1,.31.43,1.29,1.29,0,0,1-1,.87.61.61,0,0,1-.52-.17,5.62,5.62,0,0,0,.93-1A.3.3,0,0,1,41.61,11.63Zm-25,.27c.21,0,.32.53.34.79a4.55,4.55,0,0,1,0,.56s.25-.12.22-.33-.09-.72.18-.68.29.26.15.68a2,2,0,0,0-.13.69c0,.61-.3,1-.84,1s-.25-.2-.58-.53c-.18-.17-.55-.34-.67-.61a1.28,1.28,0,0,1,0-.87c.08-.3.47,0,.88-.23s.28-.47.49-.46Zm14.11.22c.06,0,.12,0,0,.33A6.33,6.33,0,0,0,30.58,14c0,.08-.09.11-.1.17s-.06.09-.12.13c-.44.32-.47.82-.41.8a5.54,5.54,0,0,1,.55-.62c.11-.07.18.14.17.27a2.61,2.61,0,0,1-.16.86c-.17.42-.47.55-.56,1a2.28,2.28,0,0,0,0,1.05c.2.48.19.31.18-.13a1.36,1.36,0,0,1,0-.63,4.71,4.71,0,0,1,.35-.58c.17-.24.27-.46.49-.44s.27.76.24,1-.11.49-.15.67c-.16.61-.5.31-.63,1-.09.41,0,.84.09.84s.15-.66.86-1.16c.06,0,.37,0,.28.49,0,.14-.29.1-.13.29s-.22.37-.3.69-.49.46-.41.53c.33.26.18,1.2.33.9.23-.5.57-1.19.89-1.2.14,0,.19.46-.2,1.09-.5.8-.51,1-.68,1s-.36-.36-.32-.95-.41-.55-.66-1c-.11-.22,0-.94-.26-1.72s-.5-.75-.59-1.3.44-1.22.31-1.57a.68.68,0,0,1,.07-.65c.2-.32.39-.51.39-.85a3.69,3.69,0,0,1,.53-1.8l.06,0Zm-19.47.23c.1,0,.16.51.4.54s.54.1.65.29.11.37.36.5.7.39.77.7-.29.63-.51.85-.12-.38-.54-.63-1.17-.29-1.36-.69a1.41,1.41,0,0,1,.21-1.54l0,0Zm11.36,0h0a1.28,1.28,0,0,0,1.06.45c.46,0,.07.78-.48.82s-.45.2-.34.29a.4.4,0,0,0,.48,0c.22-.11.18-.19.53-.56s.52-.23.47,0-.44.91-.92.93c-.15,0-.48,0-.52.1s-.45.24-.8-.07-.77-.84-.69-1.19.51-.52.85-.54.27-.22.33-.23Zm2.65.51c.27,0,.35,1.79.32,2.06a1.68,1.68,0,0,1-1.12.93c-.26,0-.76,0-.63-.14s.42-.17.46-.35-.22,0-.45,0-.51-.16-.46,0,.21.33.08.42-1,.19-1.15,0,.23-.45.13-.56-.2.17-.45.26c-.42.16-.78,0-.69.13s.31.11.47.14.28.13-.09.17-.95.08-1.22-.2a1.29,1.29,0,0,1-.4-1.16c.1-.47.15-1.52.34-1.52s.74.82,1,1.12a1.74,1.74,0,0,0,1.06.63,2.07,2.07,0,0,0,1.4-.19c.46-.35,1-1.59,1.35-1.68Zm8,.19a1.62,1.62,0,0,1,.92.54c.18.13-.34.6-.82.78-.69.26-1.16,0-1.37.23s-.53.32-.12.62c.17.12.06.16-.21.15s-.16-.45-.29-.47-.52-.35-.22-.58a4.52,4.52,0,0,1,.59-.48c.42-.23.06-.4.53-.51a7.49,7.49,0,0,1,1-.28Zm-10.65.13c-.23,0-.05.42-.32.46s-.18-.42-.3-.38,0,.48.09.55.37.35.53.06.12-.69,0-.69ZM14,13.37c.17,0,.44.55.55.91a2.92,2.92,0,0,1,.1,1c0,.09-.34.08-.45-.39s-.5-.21-.59-.72A.81.81,0,0,1,14,13.4a.09.09,0,0,1,.07,0Zm-9.78.19c.14,0,.17.1.13.24s-.14.2-.36.46a7.77,7.77,0,0,0-.7,1c-.09.16-.31.19-.57.19s-.26.1-.4.31-.27.49-.32.47-.16-.34.13-.74c.18-.23.47-.53.24-.45s-.54.22-.61.4c-.22.5-.34.23-.24-.06a2.37,2.37,0,0,1,.7-.85,5.69,5.69,0,0,1,.9-.28c.31-.12.83-.61,1-.65ZM7.72,14c.23,0,.36.42.61.52s.34,0,.56.08,0,.55.4.87.56.32.65.52c0,.05-.07.17,0,.27a1.18,1.18,0,0,1,0,1.1c-.29.45-.92.45-.77.53s.6.05.83.54a1.14,1.14,0,0,1-.4,1.48c-.44.22-1.08,0-.94-.11a1.31,1.31,0,0,0,.5-.84c.07-.34-.06-.54-.59-1s-.8-.91-.8-1.34c0-.28.22-.54.46-.4s.59.61.8.71-.07.51.12.58.11-.08.17-.12.06-.23.07-.36.09,0,.11,0a.45.45,0,0,0,0-.36c-.1-.21-.23,0-.65-.77a2.41,2.41,0,0,0-.63-.55.66.66,0,0,1-.27-.48c-.08-.23-.51-.68-.31-.79a.16.16,0,0,1,.1,0Zm17.42,0c-.11,0,0,.54-.21.83s-.6.73-.2.65a1,1,0,0,0,.54-.71,1.24,1.24,0,0,0-.1-.77Zm3,.16c.18,0,.48.16.89.56s.12,1-.09,1.37-.18.67-.59.69-.45.44-.6.69a.65.65,0,0,1-.73.38c-.22,0-.21-.2-.13-.27s.2,0,.24,0,.06-.34,0-.52a5.67,5.67,0,0,0-.46-.7.49.49,0,0,1-.06-.59c.2-.15.43.59.62.52s-.36-.81-.12-1c.05,0,.23.63.28.6.2-.13,0-1.06.16-.92a1.78,1.78,0,0,1,.33.93c.05.45-.05.82,0,.79.45-.37.2-1.48,0-1.72s.33,0,.58,0,0-.27-.39-.43c-.14-.06-.17-.22,0-.33l.07,0Zm-17.33.09c.31,0,.34.32.67.65s.51-.06.61.24c0,.1,0,.24.37.4s.5,0,.67.07.5.48.4,1.07c0,.25-.13.37-.47.58s-.53-.23-.51-.47a.73.73,0,0,0-.44-.61c-.22-.09-.63,0-1-.14s-.16-.81-.44-.89a1.44,1.44,0,0,1,0,.59,1.43,1.43,0,0,0,.6,1.11c.49.23.94.29,1.3.47A.93.93,0,0,1,13,18.49a.84.84,0,0,1-1,.37c-.16-.1.33-.34.15-.66s-1.27-.21-1.73-1c-.17-.31,0-.55-.07-.89s-.37-.52-.37-.8.44-.55.44-.55a.21.21,0,0,0,0,.1c-.15-.16-.08-.8.16-.84Zm9.86.09a.75.75,0,0,0-.05.83c.17.24.38.3.42.23s-.18-.32-.31-.41-.06-.65-.06-.65Zm-16,.24h.08c.24.05.76.74.89,1s.63.92.57,1.12S5.23,16.92,5,17s-.07.26-.33.36a3.54,3.54,0,0,0-.46.25c-.07,0,0,.22-.35.25l-.14,0c.13,0-.4.24-.58,0s.46-.26.05-.36-.63-.69-.47-.81.36.76.63.44c.13-.15-.35-.46-.38-.72s0-.42.27-.35A1,1,0,0,1,3.7,17c-.08.51.26.13.17.21s-.12-.69,0-.59a1.57,1.57,0,0,1,.21.63c0,.13.31-.26.46-.33s.68-.18.85-.41a.59.59,0,0,0,0-.71,7.27,7.27,0,0,1-.68-.54c-.16-.19.06-.31-.12-.42s-.21-.31-.06-.33Zm12.65,0a.15.15,0,0,1,.09,0c.34.11.19.69.3,1.12.23.93.15-.29.44-.36s.27.46.23.7.48-.55.61-.4,0,.54-.11.71-.79.22-.86.57,0,.35-.14.56a.53.53,0,0,1-.39.17c-.23,0-.35-.14-.45-.46s-.14-.92-.43-1.11a4.43,4.43,0,0,1-1-1.29c-.06-.19.06-.22.1-.19a6.49,6.49,0,0,1,.93.73c.24.22.25-.8.69-.77ZM40,14.7c.07,0,.11.07,0,.18a9.36,9.36,0,0,0-.67,1.21,5.14,5.14,0,0,0-.43.83c0,.24.28.19.41.16s.17-.53.33-.5.22.27.19.43c-.1.45.3-.13.43,0s-.28.84.26.35c.19-.16.26-.67.52-.51s.25.22.18.3-.56.4-.66.53a.28.28,0,0,0,0,.39c.23.07.45-.44.78-.59s.39.12.3.23a2.8,2.8,0,0,1-.84.66c-.16,0,.25.33-.07.34s-.4-.18-.56-.45-.33-.67-.59-.66a1.26,1.26,0,0,1-.87-.17.66.66,0,0,1-.35-.38c0-.12,0-.22.32-.47a1.56,1.56,0,0,0,.32-.42,6.43,6.43,0,0,1,.48-.93,3.41,3.41,0,0,1,.41-.46l.06,0Zm-6.81.3c.23,0,.17.77.34.94s-.17.35-.47.51-.64.2-.69.28c-.19.34.21.57,0,.68s-.59.06-.68-.17a1.79,1.79,0,0,1,.39-1.68A1.61,1.61,0,0,1,33.23,15ZM4,15s.18.06.15.11-.46.27-.65.57-.36,0-.22-.14S3.84,15,4,15Zm6.51.1h0Zm26.37,0h0c.14.11.15.53.15.69a2,2,0,0,1-.47,1.11,2.44,2.44,0,0,1-1.08.62c-.41.15-.61.33-.58.6s.24.31.34.4.07.2-.38.2c-.26,0-.31-.3-.43-.6s-.12-.46.24-.76A7.31,7.31,0,0,0,36,16.1c0-.14-.25-.24,0-.36s.74-.67.94-.63Zm-23.1.18a.11.11,0,0,1,.1,0c.1.1,0,.29.27.43s.34.22.33.45.15.46.15.46-.05-.76.16-.81.32,2.06-.09,2.24c-.15.06-.14.44-.1.79s-.26.19-.46.63-.16.76-.36.63-.09-.44-.08-.77a2.27,2.27,0,0,0-.38-1.14c-.22-.41,0-.49.32-.46s.48,1,.6.7a1.84,1.84,0,0,0,0-.79c0-.16-.16-.18-.4-.46a1.34,1.34,0,0,1-.06-.88c0-.29-.18-.16-.28-.72a.29.29,0,0,1,.25-.32Zm-9.43.15c.09,0,.15.15.12.18a5.29,5.29,0,0,1-.78.52c-.14.05-.21-.15-.18-.2a2.31,2.31,0,0,1,.8-.49Zm-1.5.08H3c.06.13-.09.28-.13.38s-.35.7-.38.43a1.66,1.66,0,0,1,.22-.78A.35.35,0,0,1,2.86,15.52Zm2,.25a.71.71,0,0,1,.31.26c0,.12.13.32,0,.38s-.42-.3-.45-.41a.22.22,0,0,1,.11-.23Zm35.24,0a.8.8,0,0,1,.37.15c.17.14.39.5.26.54s-.3-.27-.39-.35S40,16.05,40,16A.13.13,0,0,1,40,15.8Zm-35.79.4c.08,0,.3.18.33.27s-.08.23-.24.18-.28-.14-.28-.24a.3.3,0,0,1,.19-.21Zm21.9.32c.1,0,.32.27.4.6.18.75-.35,0-.21.38.29.64.1,1,0,1.17a1.72,1.72,0,0,1-1.26.54c-.31,0-.25-.12-.11-.25a.94.94,0,0,0,.15-.73c-.05-.28-.3-.57-.26-.75s.55.48.7.45-.18-.74,0-.8.36.65.47.48,0-1.09.16-1.09Zm-7.57.27c.26,0,.35.2.37.42s.2-.05.35-.24.11.75.26.75.28-.46.53-.42-.05.57,0,.63.2-.29.2-.29.23-.41.34-.41.12.13,0,.33-.44.55-.42.78.19.65,0,.8-.49.15-.84-.09-.35-.75-.49-1-.16-.24-.43-.27-.17-.55-.14-.74.28-.26.28-.26Zm15,.07A.76.76,0,0,1,34,17c.31.18.19.51-.2.88s-1.06.57-1,.7a.6.6,0,0,1-.07.64c-.2.26-.3.18-.46-.05a.91.91,0,0,1-.17-.84c.07-.19.64-.45.72-.59s-.07-.28,0-.46.39-.23.58-.33a.42.42,0,0,1,.25,0Zm-28,.34h.13c.08,0,.32,0,.33.09s-.17.22-.44.19a1,1,0,0,0-.64.25c-.28.18-1,.94-1.15.84S5,17.33,5.09,17.28a1.45,1.45,0,0,1,.54-.08Zm18.73.2c.22,0,.44.78.42,1.1s0,.52-.37.65a1.5,1.5,0,0,1-1.45,0c-.27-.16.22-.28.45-.75s-.85-.91-.36-1a.94.94,0,0,1,.77.24c.14.18.3.44.3.44s.07-.73.24-.73Zm-3.31.05c.09,0,.1.47.17.59s.23-.45.33-.48.08.37.13.53.61-.65.77-.63-.34.63-.38.8a.49.49,0,0,0,.1.45c.3.2.46.06.46.25s-.12.06-.37.22-.25.25-.45.24a1.33,1.33,0,0,1-.62-.24c-.18-.11-.44-.19-.45-.8,0-.45.07-.89.31-.93Zm-10.64.28c.17,0,.57.75,1.13.7.24,0,.32.08.32.31s.25.48.41.73a1,1,0,0,1-.35,1.13c-.38.25-.88,0-1.08-.14s-.16.28.34.46.94,1.17.44,1.54-1.07.19-1.18.31.1.15.26.24.12.2.23.33.58.18.34.8-1.23.67-1.09.83c.41.47.58.54.57.83a1.1,1.1,0,0,1-.79.94c-.31.05-.55.06-.11.35.24.15.89.28.6,1s-.84.69-.75.5.3-.79,0-1a1.8,1.8,0,0,0-.8-.37c-.25,0-.45-.35-.55-.56-.18-.4.15-.88.36-.85.43.07.3.69.71.75s.49-.63.37-.86c-.2-.39-1-.6-.92-1.37.05-.35.22-.33.38-.32.33,0,.49.36.76.38s.41-.35.36-.66-1.1-.89-1.22-1.1.29-.7.53-.81.38.42.7.55.37,0,.46-.14c.26-.48-.83-.67-1.15-1.49-.13-.33.39-.7.71-.85s.55.44.79.4a.35.35,0,0,0,.16-.47c-.34-.38-.8-.38-.9-.54-.25-.4-.5-1.51,0-1.53Zm5.93.3a.63.63,0,0,1,.38.59c0,.41-.72.8-.75,1.1s-.71-.47-.39-.79.43-.69.66-.87a.12.12,0,0,1,.1,0Zm6.42.11c.07,0,.13.09.13.2s-.06.2-.13.2-.12-.09-.12-.2S22.7,18.14,22.76,18.14Zm13.74.09c.11,0,.23,0,.23.21,0,.49-.29.64-.46,1s0,1,.39,1,.26-.27.48-.28.28.6.24,1a.85.85,0,0,0,.41.77c.25.15-.13.16-.23.1s-.59-.56-.85-.74.44-.34.44-.48,0-.35-.22-.21a1,1,0,0,1-1-.22,1.48,1.48,0,0,1-.19-1.43,1.05,1.05,0,0,1,.55-.65.44.44,0,0,1,.18,0Zm-7.71.23c.24,0,.23.41.36.6s.22.64-.1.64-.3-.26-.42-.6,0-.62.16-.64ZM7.9,18.57a.57.57,0,0,1,.42.3c0,.13.34.3.34.3s0,.22-.15.19-.39.05-.39.16a1,1,0,0,0,.35.57,5.94,5.94,0,0,1,.74.57,1.24,1.24,0,0,1,0,.91c-.28.11-.08.29-.37.41a1.94,1.94,0,0,1-.95.08c-.13,0,.36.42.55.47a.91.91,0,0,1,.46,1c-.07.31-.14,0-.26.36s-.92.2-1.22-.08c-.09-.07-.31,0,0,.37s.82.53.84.86a1,1,0,0,1-.42.77c-.2.12-.53.08-.6.33s.3.39.3.54a1.33,1.33,0,0,1-.68.66c-.17,0-.15-.18.09-.4s0-.45-.19-.71-.64-.34-.78-.64a.9.9,0,0,1,.14-.88c.15-.13.49.22.49.42s.11.62.4.57.73-.51.26-.91.11-.34-.71-1c-.27-.24-.44-1.13-.07-1.23s.71.58.83.7.12.37.59.29c.15,0,.19-.45-.11-.74A3.37,3.37,0,0,1,7,21.5c-.11-.41.13-.58.34-.48s.59.68.92.67.26-.19.33-.43-.63-.6-.9-.85a.94.94,0,0,1-.33-.81,1.47,1.47,0,0,1,.47-1,.14.14,0,0,1,.11,0Zm26,.09a.43.43,0,0,1,.34.14,1,1,0,0,1,.23.51c0,.32-.63.25-.94.65-.18.23-.34.45-.13.57s.51-.37.71-.29a1.33,1.33,0,0,0,1-.28c.3-.18.39-.13.37.19,0,.47-.34.67-.76.9A1.17,1.17,0,0,0,34,22.29c.14.29.31.34.43.07s.06-.68.65-.77.42-.48.69-.48.37.42.22.68-1,.72-1,1.31.22.59.44.58c.41,0,.38-.22.4-.42a1.38,1.38,0,0,1,1-.93.51.51,0,0,1,.48.67c-.2.47-.5.38-.92.85s-.23.58-.32.8-.29.24-.28-.31c0-.2-.57-.05-.72-.09-.39-.12-.44-.88-.78-1.37s-.7-.19-.9-.93c-.13-.49.11-.48-.19-.95a2.87,2.87,0,0,1-.48-.86c0-.18-.24-.63.45-1.16a1.3,1.3,0,0,1,.73-.32Zm-20.6.3c.17,0,0,.62.12.85.26.38.43.48.5.63a.46.46,0,0,1-.15.64c-.24.16-.06.29-.35.55s.19.79-.06,1a1.19,1.19,0,0,0-.32,1c.05.34,0,1-.23,1.1-.1,0,0,.62-.19.78s-.65-.12-.58-.33.36-.29.4-.58-.25-.54-.56-.93.26-.51.54-.51.6.07.47-.26-.74-.8-.83-1.36.43-.45.55-.47,0,.61.24.63.15.12.32-.18-.38-.14-.31-.73-.09-1.06,0-1.29.3-.59.46-.57Zm4.63.2h0a.7.7,0,0,1,.18.71c-.26.8-.67.58-1.43,1-.3.17-.24-.32-.16-.55s.58-.57.87-.69.35-.45.51-.47Zm9.43,0a.49.49,0,0,1,.48.68.62.62,0,0,1-.69.47c-.45,0,.14-.16-.07-.56-.12-.23-.09-.58.28-.59Zm-12.46.31c.14,0,.33.32.27.5s-.19.63-.44.5a.74.74,0,0,1,.11-1,.07.07,0,0,1,.06,0Zm5,.31c.24,0,.5.06.53.22.11.58-.86,1.15-1.18,1.46s-.23.49-.29.63-.53.18-.62-.2a2.62,2.62,0,0,1,1.21-2.05.85.85,0,0,1,.35-.06Zm9.06.19a.78.78,0,0,1,.45.18c.23.15.64.44.69.65s.08.67-.4.68-.34-.2-.49-.46-.41-.27-.5-.6a.38.38,0,0,1,.11-.38.31.31,0,0,1,.14-.07ZM25.46,20h.08c.49,0,.5.26.54.31a1.46,1.46,0,0,0,.73.6c.55.23.87.62.88.89s-.39.65-.7.54,0-.21-.13-.58-.52-.33-.75-.44a1.68,1.68,0,0,1-.93-.86c-.13-.4.14-.46.28-.46Zm-1.84,0a.7.7,0,0,1,.78.5,3.81,3.81,0,0,0,.76,1,1,1,0,0,1,.4,1.35.49.49,0,0,1-.71.27c-.25-.21.27-.15.19-.75s-.64-.45-.94-.64a1.64,1.64,0,0,1-.78-1.13c0-.33-.76-.59.3-.6Zm-1.85,0,.36,0c.28.06.22,1-.28,1.44s-1,.37-1.24.74a.71.71,0,0,0,.05.81c.13.15-.74,0-.83-.51a1.07,1.07,0,0,1,.39-.89c.07-.08.05-.24.11-.42a3,3,0,0,1,.48-.79,1.34,1.34,0,0,1,.63-.39,1.06,1.06,0,0,1,.33,0Zm6.33.43a1.07,1.07,0,0,1,.72.46c.57.64-.06,1.15-.5,1.23s-.26-.23-.15-.32a.42.42,0,0,0-.05-.68c-.36-.22-.54-.43-.28-.62a.47.47,0,0,1,.26-.07Zm-12.54.41c.23,0,.51.32.31.56s-.93.54-.87.75-.55-.19-.17-.69.49-.57.69-.62Zm-1.4.27c.2,0,.39.08.34.36s0,.58-.38.73c-.2.09-.21-.14-.22-.43s0-.63.18-.65Zm18.34.11c.16,0,.24.34.25.58s-.52.77-.77,1.09-.35-.48-.26-.65.46-1,.78-1ZM23,21.5c.23,0,1,.73,1.19.94s.31,1,.8,1.09c.68.18.69.52.64.72a1.69,1.69,0,0,1-.69.83.33.33,0,0,1-.49-.2c-.06-.18.1-.37,0-.66s-1.31-.93-1.66-1a1,1,0,0,1-.43-.89c.1-.13.32-.14.46-.23s0-.55.19-.56Zm-5.59.07c.23,0,.43.43.5.66s-.85.67-1.11.9c-.1.09-.34.12-.26.65,0,.19-.8-.12-.33-1.08a2,2,0,0,1,1.15-1.13Zm12.44.19c.32,0,.59.28.73.73a.67.67,0,0,1-.71.79c-.61-.06-.09,0,0-.34s-.11-.17-.29-.41-.24-.74.28-.77ZM26.21,22h0a1.56,1.56,0,0,1,.72.53c.11.17.41.29.73.67s.5.51.35.94a.86.86,0,0,1-1.06.47c-.14,0,.18-.34.18-.59s-.57-.6-1-.8c-.26-.12-.16-.37-.07-.5s-.07-.69.1-.72Zm-4.41.34c.28,0,.49.2.51.61a.81.81,0,0,1-.31.73,1,1,0,0,1-.51.21,2.14,2.14,0,0,0-.85.94c-.07.22.29.6.19.69a.65.65,0,0,1-.88-.35,1.12,1.12,0,0,1,0-1.12c.2-.29.4-.17.81-.49s.2-.56.33-.79a.76.76,0,0,1,.42-.38.86.86,0,0,1,.3-.05Zm6.73.17h.1a.69.69,0,0,1,.59.39,1.66,1.66,0,0,1-.08.95c0,.2-.37.82-.32.15s-.42-.28-.75-.89a.44.44,0,0,1,.46-.61Zm-9.7.11c.29,0,.61.23.53.52s-.62.6-.7.86a.76.76,0,0,0,.1.75c.18.17-.36.08-.6-.18a1.3,1.3,0,0,1-.26-1,1.45,1.45,0,0,1,.74-.9.63.63,0,0,1,.19,0Zm14.18,0c.14,0,.32.21.32.45s-.55.87-.66,1.17a.56.56,0,0,0,.23.72c.56.35.67-.57.82-1s.37-.36.54,0c.25.53-.11.75-.19,1.13-.24,1.14-.59.4-.52.94s.24.9,0,.9-.64-.54-.61-.86.19-.61.07-.73c-.27-.28-.72-.4-.84-1.06s.39-1.68.81-1.67Zm-18.94.07c.12,0,.2.2.2.28s-.22.58-.46.42,0-.55.18-.66a.12.12,0,0,1,.08,0Zm1.18.27a.15.15,0,0,1,.09,0,1.32,1.32,0,0,1-.09,1c-.27.23-.38.78-.51.57a1.27,1.27,0,0,1-.06-.87c.1-.47.35-.75.57-.75Zm16.41.08h.05c.21.06.2.3.11.67a1.72,1.72,0,0,0-.09.91c.08.15-.37.08-.46-.47s.17-1.11.39-1.12Zm6.23.17c.23,0,.2.79.08,1.07a10.32,10.32,0,0,1-.81,1.05c-.13.2.13.57.28.47s.56-.94.93-1.05.37.22.31.57c-.09.55-.67.53-.86,1a.94.94,0,0,0,0,.56c0,.09-.23,0-.32-.08s0-.48-.12-.53c-.79-.41-.93-.9-.9-1.11a4.32,4.32,0,0,1,.84-1.28c.25-.22.39-.63.61-.64ZM26,23.46h0c.4.28.35.52.74,1.16s.82.46.94.73a.88.88,0,0,1,0,.64.66.66,0,0,1-.64.51c-.16,0-.14-.46-.17-.75s-.72-.36-.84-.51-.26-1.84,0-1.79Zm4.15.35a.75.75,0,0,1,.3.06.62.62,0,0,1,.35.66c0,.2-.27.54-.52.53s-.17-.21-.23-.35-.3-.22-.34-.37a.34.34,0,0,1,.12-.4.72.72,0,0,1,.32-.13Zm-7,.22c.09,0,.05.32.44.4a.9.9,0,0,1,.66.41c.28.32.3.67.72.77s.85.69.53,1-.74.58-1,.44.14-.4.15-.64-.15-.68-.49-.7a1.65,1.65,0,0,1-.94-.24,1.09,1.09,0,0,1-.51-.79A.56.56,0,0,1,23.1,24Zm-9.17,0c.22,0,.4.42.11,1.07-.17.4-.27-.16-.28-.25s-.1-.73.08-.81Zm3.23.23a.63.63,0,0,1,.34.63c-.37.8-.76.72-.83.92a.69.69,0,0,0,0,.55c.16.19-.63.34-.64-.67,0-.25.25-.77.47-.83.41-.1.55-.63.66-.6Zm11.49.31c.18,0,.36.07.62.36a.75.75,0,0,1,.15.94c-.22.4-.56.4-.47.3s.24-.12.14-.34-.75-.32-.91-.78c-.07-.2.11-.48.47-.48Zm-6.26.08s.06,0,.06,0,0,.47.09.73a1.29,1.29,0,0,0,.54.73c.24.18.61.12.95.45.17.16.06.47.2.61a1.87,1.87,0,0,0,.9.47c.33.12.23.73.05.95a.68.68,0,0,1-.47.25c-.32.07,0-.29,0-.48s-.44-.69-.95-.9c-.25-.1-.44.07-.92-.42-.2-.2-.14-.62-.46-.8s.11-.35-.45-.73h0a1.22,1.22,0,0,0,0,.27c.08.57-.24.64-.43.83A1.24,1.24,0,0,0,21,27.74c0,.38-.29.55-.64.16s.06-1.18.08-1.41.16-.35.47-.49a.52.52,0,0,0,.27-.65c0-.06-.17-.17-.09-.29a1,1,0,0,1,1-.16.85.85,0,0,1,.41-.21Zm-3.24.25c.16,0,.49.79.43,1.08-.1.45-.68.59-1,.9s0,.42.05.64-.27.38-.54,0-.5-.86-.15-1.13-.06-.61.44-.83.51-.49.7-.69Zm15.94,0c.13,0,.34.1.44.39a1.49,1.49,0,0,1-.25,1.16c-.27.47-.73.55-.7.76a1.55,1.55,0,0,0,.08.95c.11.38.08.67,0,.42a4.28,4.28,0,0,1-.29-.93c0-.25-.47-.35-.36-.72a9.85,9.85,0,0,1,.47-1A5.11,5.11,0,0,1,35,25a.14.14,0,0,1,.1-.07Zm-3.26,0a.34.34,0,0,1,.34.18c.1.23-.61.86-.54,1.11s.4-.77.8-.65.06.72.25.83a1.06,1.06,0,0,1,.12,1.19c-.24.51-.59.53-.8.85a.76.76,0,0,0,0,.77c.2.37-.11.16-.11.16s-.33-.08-.41-.82A2,2,0,0,1,32,27.16c.32-.33.5-1,.18-1-.14,0,0,.75-.38.83s-.59-.33-.57-.82,0-.62-.12-.74-.34-.15-.36-.26.15-.31.44,0c.14.15.14.15.4-.06a.56.56,0,0,1,.3-.13Zm-16.57.12c.22,0,.33.55.19.78a11.17,11.17,0,0,0-.74,1c-.13.29-.33-.48-.2-.75a3,3,0,0,1,.65-1A.13.13,0,0,1,15.28,25.11Zm-3.72.2c.15,0,.25.31.32.56s.42.44.42.67a.82.82,0,0,1-.55.8,1.36,1.36,0,0,1-1.1-.17c-.19-.22-.07-.37,0-.39.25-.05.36.31.64.37s.2-.13.36-.26a.35.35,0,0,0,0-.53,2.37,2.37,0,0,1-.42-.53.42.42,0,0,1,.22-.51.09.09,0,0,1,.07,0Zm14.21,0c.15,0,.35.28.4.32s.51.49.54.56-.06.45.07.47.17.32.64.38.41.65.32.92a1.53,1.53,0,0,1-.87.77c-.09,0-.2-.08-.06-.23a.61.61,0,0,0,.05-.68A3.1,3.1,0,0,0,26,27c-.18-.06-.18-.39,0-.51s.28,0,.12-.14a1.88,1.88,0,0,1-.4-.67c-.11-.24,0-.36,0-.36l.07,0Zm4.38.21a.63.63,0,0,1,.57.39,2.25,2.25,0,0,1,0,2c-.41.65,0-.45-.15-1s-.32,0-.46-.64-.51-.21-.13-.64a.2.2,0,0,1,.14-.06Zm-17.5.12a.23.23,0,0,1,.22.27c0,.15,0,.35-.08.4s-.19-.15-.25-.15c-.23,0-.23-.51.11-.52Zm1.14,0c.15,0,.37.48.27.74s-.62-.18-.62-.36.2-.31.32-.37Zm14.67.67a.36.36,0,0,1,.23.18.81.81,0,0,1,0,.51c0,.12.21.12.42.31a.75.75,0,0,1,.14.7c0,.16-.3.5-.36.18a1.57,1.57,0,0,0-.57-.83c-.26-.22-.31-.11-.38-.26s.27-.8.51-.79Zm-22.54.2h0c.35.08.41.62.77.88s.71.82.5,1.13c-.38.57-1.1.35-.73.1.19-.13.18-.28.14-.5s-.59-.66-.64-1-.15-.57-.06-.59Zm30.36,0s0,0,0,0c.17.09.22.35.27.7S36,28,36,28.32s-.1,1.06-.1,1.06a1.7,1.7,0,0,1,0-2.32c.16-.22.24-.51.34-.5ZM17,27s.5,0,.25.82c-.09.31-.59.55-.5.82s.55,0,.64.25A1.74,1.74,0,0,1,17.27,30c-.27.45-.69.71-.7.38s-.27-.52,0-.69.76-.56.37-.67-.55.06-.54-.23a2.91,2.91,0,0,1,.16-1.3C16.78,27,17,27,17,27Zm-1.4.16c.17,0,.4.1.29.31A4.18,4.18,0,0,1,15,28.66c-.26.13-.29-.46-.2-.73a1.46,1.46,0,0,1,.68-.76.29.29,0,0,1,.14,0Zm14.1.16a.53.53,0,0,1,.46.26c.27.47.24.91,0,1s-.32-.1-.29-.47a1,1,0,0,0-.31-.78Zm-17,0c.18,0,.38.3.4.65s-.09.39-.43.4c-.07,0-.1-.19-.25-.15s.09.45-.18.82-.32.59-.39.3.09-.52-.14-.79-.47-.2-.66-.32-.19-.24,0-.34a.55.55,0,0,1,.4-.08c.27,0,.32.19.58.14s.38-.45.56-.59a.15.15,0,0,1,.11,0Zm13.18.14c.27,0,.59,1.2,1,1.52s.57.59.47.81c-.2.42-.51.6-.37,0s-1-.83-1.16-1a2.05,2.05,0,0,1,0-1.34.11.11,0,0,1,.07,0Zm-12.06,0c.16,0,.24.06.24.37a1,1,0,0,1-.3.76c-.11,0-.32-.42-.29-.73S13.68,27.48,13.81,27.47Zm23.49,0c.12,0,.45.25.46.6,0,.82-.88,1-1,1.28s.29.47.46.65-.1.18-.39.21a.76.76,0,0,1-.44-.62A1.69,1.69,0,0,1,37,28.22c.36-.26.31-.46.24-.62s0-.11,0-.11Zm-18,.05,0,0c.29.19.36.78.32,1.18s-1.25.81-1.31.93-.36-.54-.07-.82c.73-.71.84-1.35,1-1.31Zm3.21,0s0,0,0,0c.41.35,1.45.9,1.65,1.14a.74.74,0,0,1,0,.75c-.43.32-1.24-.62-1.38-.79s.1-.49-.09-.6-.3-.5-.22-.51Zm-14.36.05c.19,0,.34.26.34.37s-.09.33,0,.41a2.37,2.37,0,0,1,.88.91.7.7,0,0,1-.2,1c-.19.13-.59,0-.65.09s.1.59,0,.86a.62.62,0,0,1-.71.34c-.22-.07.37-.29.4-.51a.63.63,0,0,0-.37-.68,1.07,1.07,0,0,1-.64-.77c0-.19.19-.29.4,0a1.05,1.05,0,0,0,.75.44c.37,0,.55-.16.59-.27.13-.41-.35-.58-.57-.74a1.26,1.26,0,0,1-.4-.69c-.05-.2-.15-.53,0-.65a.3.3,0,0,1,.19-.09Zm13.78.1c.22,0,.41.31.35.73s-.95,1-1.11,1.12-.1.5-.24.62-.4,0-.48-.48a.87.87,0,0,1,.65-1c.36-.1.36-.28.38-.5s.27-.5.45-.49Zm11.57.14c.1,0,.35.54.34.75s-.75.85-.8,1.23a.76.76,0,0,0,.31.69c.12.13-.45.23-.71-.33-.17-.38,0-.5-.12-1s.8-1.24,1-1.38Zm-5.21.92a1.5,1.5,0,0,1,.84.52c.12.16-.07.51-.2.58s-.4,0-.39-.35c0-.22-.33.11-.55-.18a.36.36,0,0,1,.17-.55l.13,0Zm-15.65,0c.07,0,.15.05.32.24a1.3,1.3,0,0,1,.16,1.17.24.24,0,0,1-.43-.17c.05-.22.09-.62,0-.69s-.34-.44-.12-.53l.08,0Zm3.18.1c.15,0,.41.49.25.66s.1.1-.19.51-.63.27-.75-.09.46-1,.67-1.07ZM31.28,29c.14,0,.42.77.27,1a1.4,1.4,0,0,0-.38.74c-.06.39-.12,1-.32.85s-.42.56-.64.53-.27-.39-.2-.63.7-.82.77-.94-.08-.53-.13-.72.52-.81.63-.81Zm-1.62.12c.13,0,.3.15.4.26s.28.74,0,.93-.38.16-.3-.13a.51.51,0,0,0,0-.5c-.06-.1-.34-.28-.24-.45a.18.18,0,0,1,.16-.11Zm4.8.1c.26,0,.28.37.2.69s-.34.43-.55.92.37,1.52,0,1.26a1.46,1.46,0,0,1-.62-1.43,1.53,1.53,0,0,1,.76-.94c.25-.13.11-.5.25-.5Zm-24.07.06c.49,0,.71.56.91.7a.88.88,0,0,1,.27,1.12c-.21.53-.58.52-.78.85-.11.18.35.38-.36.73-.22.11-.49,0-.3-.17s.19-.67-.17-.94-.29-.67,0-.71.45.59.73.58.48-.41.47-.67-.27-.29-.45-.52-.15-.37-.31-.48c-.42-.28-.27-.51,0-.49Zm12.29.15c.05,0,.08.06.09.13h0s1.24.83,1.42,1,.09.94-.07,1-.8-.37-.79-.6.16-.23.16-.39-.71-.46-.63-.65-.08-.09-.08-.09h0a1.06,1.06,0,0,1-.07.36c-.05.09-.14.09-.49.16s-.64.81-.67,1.14.16.71-.17.59-.67-.6-.63-.85.5-.25.66-.55-.05-.78.28-.81a1.79,1.79,0,0,0,.94-.42Zm-3.15,0c.15,0,.24.25.13.4s0,.43-.06.57-.82.34-.83.58-.25.3-.15.61.15.56,0,.47a1.18,1.18,0,0,1-.42-1c.09-.37.56-.43.74-.8s-.17-.63.24-.66c.19,0,.25-.11.33-.13Zm-5.32.06c.16,0,.37.24.4.34s.22.48.15.59-.31.24-.6-.13-.36-.59,0-.79Zm11.39,0a.68.68,0,0,1,.4.11.73.73,0,0,1,.36.55c0,.3,0,.51,0,.56a1.66,1.66,0,0,1,.51,1.17c-.1.33-.25.51-.48.26a4.5,4.5,0,0,1-.57-.77,2.42,2.42,0,0,1,0-1.22c.08-.19-.27-.31-.35-.52s0-.14.12-.14Zm-.87.27a.64.64,0,0,1,.46.19c.21.21.14.71,0,.74s-.34-.22-.34-.36-.2-.29-.23-.4,0-.16.1-.17Zm7.48.35s0,0,0,0,.3.73-.12,1c-.24.12-.05.45-.18.83s.24.36.25.46,0,.27-.54-.24c-.18-.15-.24-.42-.09-.85a4.51,4.51,0,0,1,.43-.88c.14-.24.21-.28.24-.28Zm3.7.08c.14,0,.09.28,0,.6a1.75,1.75,0,0,1-.57.81c-.16.15-.56.42,0,.86.19.14-.06.49-.49.13a1.18,1.18,0,0,1-.12-1.08c.12-.3.31-.46.72-.72s.17-.6.43-.6Zm-7.81.1c.31,0,.45.49.45.66s-.05,1-.51,1.09c-.3.07-.16,0-.16,0a.57.57,0,0,0,.24-.52,1.31,1.31,0,0,0-.25-.66c-.13-.24-.1-.48.1-.55a.21.21,0,0,1,.13,0Zm-15.62.23c.26,0,.36.29.53.46s-.07.41-.19.55,0,.29-.09.41a1.1,1.1,0,0,1-.66.33c-.5,0-.14-.23.08-.6s-.23-1,.13-1.12a.39.39,0,0,1,.2,0Zm3.29.16a.17.17,0,0,1,.1,0c.09,0,.17.24.21.33s0,.3-.15.53,0,.61-.11.67-.43-.38-.44-.67.18-.18.2-.31,0-.54.19-.56Zm1.62,0a.19.19,0,0,1,.2.18c-.1.4-.43.5-.51,1.16,0,.24.37.48,0,.49s-.52-.54-.39-1,.32-.25.45-.38.05-.27.11-.33.1-.08.15-.08Zm12,.25c.24,0,.28.4.19.61s-.35.33-.28.46-.39.08-.4-.33S29.22,31,29.43,31Zm-9.55.12c.22,0,.23.9,0,1a1.3,1.3,0,0,0-.66,1.11c0,.26.41.41,0,.42s-.66-.33-.7-.83c0-.22.45-.69.61-.87s0-.19.05-.32a2.88,2.88,0,0,1,.7-.52Zm-6.18.14c.31,0,.45.68.28,1s.62.68.68,1.09-.16.2-.12,1a36.41,36.41,0,0,0,.4,3.85c.08.44.22.86.34,1.43s-.26.79-.13,1.59A1,1,0,0,1,15,42c-.35.47-.65.66-.7,1.38-.08,1-.63,1.95-.55,1.13,0-.24.05-1-.08-.82s-.15,1.12-.46,1.64-.15.74-.16,1.38c0,.35-.67.61-.54,1.08s-.64,1.2-1.12,1.68c-.2.2,0,.27.32.11s.6-.46.63-.41-.27.79-.78.89a2.3,2.3,0,0,0-.71.12,5.3,5.3,0,0,0-.57.39.91.91,0,0,1-.61.21c-.14,0-.32.39-.43.16a5.09,5.09,0,0,1,.12-.68c0-.26-.22-.33-.26-.22s0,.54-.26.53-.35-.54-.11-.76a.5.5,0,0,1,.56-.18c.21,0,.36-.13.1-.32a.64.64,0,0,1-.14-.84c.25-.27.24-.08.84,0a1.16,1.16,0,0,0,1.11-.27,1.45,1.45,0,0,0,.52-1A8.57,8.57,0,0,0,11.81,46c0-.18-.17-.08-.21.5a1.26,1.26,0,0,1-.32.86c-.12.15-.22.35-.35.15s.13-.8.26-1.3c.09-.33-.15-1.09-.34-.46s0,1.59-.44,1.8c-.19.09-.51,0-.32-.5a6,6,0,0,0,.29-.94c.08-.31.2-.76.22-.94s0-.35-.16-.35-.15.39-.17.61c-.06.55-.12,1.25-.3,1.07a3.75,3.75,0,0,1,.09-1.5c0-.29.15-.64.24-1s0-.77.1-1.07a4.46,4.46,0,0,0,.35-.94c.06-.37.24-.66.33-1a6.23,6.23,0,0,0,.14-3A14.87,14.87,0,0,1,11,34.11c.09-.16.63-.19.84-.37s.28-.55.35-.64c.21-.27.59-.36,1-.84.14-.15,0-.95.41-1Zm1.07,0c.19,0,.26.33.22.5s.21.5,0,.5-.31-.15-.41-.38,0-.64.18-.62Zm7.66.16s0,0,0,0c.2.57-.11.62-.21,1s-.85.68-.87,1,0,.5-.13.58-.54.13-.54-.68,1-.91,1.24-1.12.44-.81.5-.8Zm5,.07c.21,0,.29.41.3.48s-.13.23-.29.15a.34.34,0,0,1-.17-.4c0-.13.05-.23.16-.24Zm-3,0a1,1,0,0,1,.48.14.84.84,0,0,1,.32.73c0,.3,0,.32-.61.63-.1,0-.38.07-.27-.19a2.35,2.35,0,0,0,0-1.11c0-.14,0-.19.12-.2Zm-1.56.24a1.58,1.58,0,0,1,.54.26c.17.12.46.26.56.57s-.34.28-.32.42.18.11.4.24.09.36-.2.41c-.47.08-.87-.67-.87-.83,0-.53-.21-1-.15-1l0,0Zm10.26.14a.22.22,0,0,1,.18.32c-.1.24-.57.35-.64.72a.46.46,0,0,0,.55.5c.33,0,.39-.22.88-.25s.76.06.59.27a3.77,3.77,0,0,0-.5.68c-.07.19.07.25.17.37s.17.37.06.44-.74-.19-.79-.58.42-.57.26-.67-.7.12-1,0a.71.71,0,0,1-.45-.63A1.32,1.32,0,0,1,33,32a.17.17,0,0,1,.14,0Zm-2.21,0c.18,0,.22.35.35.41s0,.37-.14.4-.46-.21-.48-.41a.37.37,0,0,1,.23-.39Zm-5.2.06c.09,0,.23.11.25.19s.16.41.06.4-.53-.19-.4-.51c0-.05.05-.08.09-.08Zm-16.52.25h.06c.3.1.31.65.31,1.1a.52.52,0,0,1-.35.52c-.46.08-.59-.2-.42-.39s.35-.17.36-.36-.21-.33-.24-.68c0-.17.18-.19.28-.19Zm2,.07a.53.53,0,0,1,.2.82.78.78,0,0,1-.72.12c-.25-.05.27-.07.43-.84,0-.07.05-.1.09-.1Zm18.67.26c.2,0,.14.44.36.56a3.07,3.07,0,0,1,.95.75,1.45,1.45,0,0,0,.56.64,1.4,1.4,0,0,1,.72.87,11,11,0,0,1,.34,2.91c.06.81.2,1.16-.06,1.37s.15,1.24,0,1.46A15.19,15.19,0,0,0,32.74,45c.19.47.23,1.74.35,2s.28.9.68,1.07c.2.08.4.28.68.17s.35.32.4.59,0,.7.23.87a4,4,0,0,0,.86.56c.19.08.16.37.11.53-.11.33-.4.58-.37-.14,0-.25-.49-.35-.61-.24s-.11.47-.26.5-.23-.54-.06-.64A1.88,1.88,0,0,0,34.22,49c-.25-.14.12.65,0,1s0,.91-.44.85c-.78-.1-1.26-1.52-1.54-1.66s0-.67-.8-1.51c-.15-.16.08-1.26-.2-1.35s0-1.11-.26-1.22-.11-.8-.6-1.11a1.54,1.54,0,0,1-.36-.72,3.44,3.44,0,0,0-.24-.92,2.44,2.44,0,0,1-.32-2,1,1,0,0,0,.14-.9,2.15,2.15,0,0,1,.18-1.5c.17-.2-.15-2.19.23-2.93.09-.17,0-.38,0-.39.19-.08.13-.37,0-.47s-.14-.49-.19-.72-.22-.63,0-.75a.16.16,0,0,1,.1,0Zm-2.44.31c.43,0,.74.15.72.33-.12.74.6,1.35.21,2.93a28.22,28.22,0,0,1-.64,2.93c-.45,1.4-.75,2-.62,2.65A15,15,0,0,0,28,44.65a13.59,13.59,0,0,1,.18,1.5c.11.4-.23.29-.24.58s-.11.9.12,1.08.77.26.9.72a.75.75,0,0,1-.1.57,1,1,0,0,0,0,.59c.11.19.15-.06.26-.25s.49,0,.59.22a2.92,2.92,0,0,1,.15.83c0,.22-.15.21-.24.16s.13-.62-.06-.81a.37.37,0,0,0-.42-.07c-.23.13.28.77.05.83s-.25.1-.35,0,0-.48-.09-.53-.25-.1-.29.23-.1.11-.09-.25.2-.64,0-.9a1.47,1.47,0,0,1-.39-.57c-.11-.28.11-.5-.39-.58-.16,0-.71-.15-.64-.45a.51.51,0,0,0-.14-.62c-.16-.16.2-.66,0-1a4.23,4.23,0,0,1-.65-2.11C26.13,42.57,26,41,26,41a12.54,12.54,0,0,0-.37,2,18.06,18.06,0,0,0-.54,3.28,1.69,1.69,0,0,1,.06.59,4.55,4.55,0,0,1-.32.81,2,2,0,0,0-.08,1.1c.08.13-.35.2-.37-.23a2.24,2.24,0,0,1,.23-1.06c.08-.15.31-.38.34-.54a1.49,1.49,0,0,0-.23-.77,1.71,1.71,0,0,1,0-1c.23-1,.77-4.52.86-4.81s.1-4.24.08-4.73-.48-1.42-.13-1.47c.83-.11.81-.18,1-.32s.76-.94,1-.94Zm4.15,0a.44.44,0,0,1,.39.27c0,.15-.11.4-.27.55s-.62-.43-.29-.74a.3.3,0,0,1,.17-.08Zm-5.81.21a.57.57,0,0,1,.31.1.23.23,0,0,1-.05.41c-.19.07-.34-.27-.32-.46,0,0,0-.05.06-.05ZM15.5,33.3c.33,0,.24,2.37.08,2.57s.08,2.39-.09,2.27A7.16,7.16,0,0,1,15,35.69c0-.26-.09-.65-.11-.94s.2-.41.26-.61.15-.84.4-.84Zm7.07.19.09,0c.18.09.27.2.18.5s-.23.83-.59.9-.31-.66-.15-.72.06-.4.2-.58a.33.33,0,0,1,.27-.12Zm-5.79,0a1.78,1.78,0,0,1,1.21.34c.3.28,1,.86,1,1.17a4.65,4.65,0,0,1,0,1.92,2.1,2.1,0,0,0-.18.64,14,14,0,0,0,.05,2.63c0,.21.05.42.06.6a6.24,6.24,0,0,0,.55,1.71,1.35,1.35,0,0,1,.26,1.23c-.16.12-.2-.55-.35-.65s-.25-.08-.23,0a4.15,4.15,0,0,1,.35,1.27,4.19,4.19,0,0,0,.19.92c.12.46,0,1.24-.29,1.27-.08,0-.27-.66-.3-1a3.09,3.09,0,0,0-.14-.43c-.05-.14-.12-.33-.18-.33s.29,1.3,0,1.53c-.1.09-.39.41-.45.3s-.18-1.62-.33-1.84.08,1.64-.17,2-1,1.37-.89,1.72a2.15,2.15,0,0,1-.09.57c0,.17,0,.43-.09.62s-.21.39-.15.55c.14.41-.56.35-.62.14s.09-.5.31-.49c0,0,.22-.14.11-.55,0-.15.14-.37.19-.54s0-.3-.16-.29-.65.08-.57-.15.05-.55.13-.71.17-.19.35-.05.45,0,.6-.24.57-2.43.35-2.26-.11.89-.21,1.27a1.37,1.37,0,0,1-.26.46c-.34.4-.61.41-.71.34s.08-.93.19-.93c.35,0,.23.48.31.48s.17-.66.1-1a4,4,0,0,1-.06-.5c0-.67.1-2.23.06-2.31s.08-3.09-.07-3.26a15.92,15.92,0,0,1-.52-3.35,3.37,3.37,0,0,0-.21-1,1.91,1.91,0,0,1,.35-1.86,1.18,1.18,0,0,1,.46-.07Zm7.63.08h.05c.11,0,.18.3.12.47-.16.41-.51.38-.54.29s.17,0,.15-.29.11-.49.22-.48Zm4.66.35c.21,0,.48,1.32.26,3.35A28.5,28.5,0,0,0,29,40.17a6.46,6.46,0,0,1-1,2.37c-.14,0-.22-.59.1-2.74a4.79,4.79,0,0,0,.12-.71c-.16-.72.13-.62.23-1s-.23-.35,0-.7,0-3.37.51-3.5ZM10,34c.25,0,.7,1.37.71,1.69a5.51,5.51,0,0,1-.1,1,16.59,16.59,0,0,1,0,2.35c-.1.31-.1.55-.28.55s-.28-1-.32-1.45c0-.22-.09-.39-.18-1.1s-.16-2.92.14-3Zm10.16.08c.25,0,.58.61.8.68s-.2.87-.23,1.1-.12.25-.12.44a2.67,2.67,0,0,0,.16.72c.1.44.08,4.15-.85,5.06-.26.25-.24-1-.24-1.19,0-.85-.25-3-.27-3.42a6.32,6.32,0,0,1,0-2.21c.14-.28,0-1.16.79-1.18Zm12.78.19a.11.11,0,0,1,.11.08c0,.15.05.35-.16.38s-.44-.18-.17-.38a.44.44,0,0,1,.22-.08Zm-9.5.33h0c.08,0,.57.08.06.56-.14.12-.32.16-.35.09s.09-.68.26-.66Zm1.43.09.07,0c.18.17.1.91.11,1.12,0,.88.36.91.37,1.1a21.72,21.72,0,0,1-.57,4.16c-.29.34-.24-.27-.48-1a12.24,12.24,0,0,1-.42-2.9c0-.81-.19-1.39-.14-1.84s.8-.64,1.06-.63Zm8.61.73a.65.65,0,0,1,.39.3c.48.74.24,3.54.25,4s-.63,3.27-.6,3.77.71,1.85.66,2.3.59,1.32.62,1.61-.28,0-.48-.31a3.13,3.13,0,0,0-.52-.76c-.16-.07.11.78.23,1s.69.8.61.82a3,3,0,0,1-1.15-1.08,13.84,13.84,0,0,1-.5-1.8,8.84,8.84,0,0,1-.09-1.87c.11-2,.49-3.87.46-4.33a16.14,16.14,0,0,0,0-2.69c-.1-.15-.24-.8,0-1a.23.23,0,0,1,.14,0Zm-11,.61a1.17,1.17,0,0,1,.22,0c.23,0,.36.29.49.32s.34-.28.43-.12.13,4,.09,4.18a17.73,17.73,0,0,0,.72,3.39,1.92,1.92,0,0,1,0,1.09,4.14,4.14,0,0,0-.06.59,2.91,2.91,0,0,1-.14,1.12c-.13.25-.31.82-.54,1.26a1.43,1.43,0,0,0,.31,1.2c.31.36.19,1.25-.1,1.39a13,13,0,0,1-2.54,0c-.3,0,0-.48-.14-.74s-.4-.52-.29-.65a.78.78,0,0,0,0-1c-.16-.16-.05-1.21,0-1.35a2.53,2.53,0,0,0-.1-1.19A6.76,6.76,0,0,1,21.23,42c.29-.53-.42-4.85,0-5.37.1-.12-.05-.47.17-.52s.37.29.56.13a.76.76,0,0,1,.48-.18Zm-6.71,4.86h0c.3.1.08,1.22.08,1.36a3.45,3.45,0,0,0,0,1,3.57,3.57,0,0,0,.39,2c.1.13,0,.51-.08.93,0,.06-.23.26-.37.5s-.16.43-.23.51c-.27.28-.62-.15-.84.09s-.36.28-.4.09.12-.28.3-.57a4.07,4.07,0,0,0,.2-.54,1.62,1.62,0,0,0,.25-1,3,3,0,0,1,.23-1.2c.1-.25.1-.5.24-.84s-.17-2.3.19-2.3Zm13.36,2c.23,0,.33.57.4.81a28,28,0,0,1,.23,3.65c-.06.19-.77,0-1-.2A12.35,12.35,0,0,1,28.63,44c0-.18.1-1,.43-1.07Zm-3.26.86c.17,0,.26,1,.19,1.24s.09.23.16.48-.07.56.06.75c.24.35,0,.66,0,1.14s-.32.35-.09,1a3.2,3.2,0,0,0,.17.55c.09.14.23-.06.27-.25a2.21,2.21,0,0,1,.3-.64c.07-.09.28,0,.37.1a.39.39,0,0,1,.07.51c-.08.15-.23.24-.34.41s.37,0,.66.06a.53.53,0,0,1,.43.37,1.21,1.21,0,0,1,0,.44,1.58,1.58,0,0,1-.21.65.21.21,0,0,1-.35-.06c-.06-.19.26-.44.26-.72a.35.35,0,0,0-.17-.33.56.56,0,0,0-.56.09.31.31,0,0,0,0,.43.89.89,0,0,1,.26.38c.06.28-.17.32-.46.25-.09,0-.2-.43-.18-.84s-.27-.26-.45-.61c-.09-.18-.29,0-.11.14a.92.92,0,0,1,.2.68.42.42,0,0,1-.33.45c-.07,0,0-.31-.07-.6s-.32-.41-.45-.28,0,.61,0,.69c.11.29-.13.49-.31.38a1.71,1.71,0,0,1,.08-1.39.28.28,0,0,0-.09-.5c-.14,0-.14-.66.14-.65s.47.88.5.54a4.49,4.49,0,0,0-.24-1.06c-.09-.38-.1-.86,0-.84s.17-.63,0-.67-.1-1.29,0-1.35.13-.92.28-.93Zm-11.31.11a6.14,6.14,0,0,1-.25.86c-.09.37-.21,1.72-.33,1.64a4.31,4.31,0,0,1,0-1.7,2.39,2.39,0,0,1,.51-.8Zm5.76.15v1c0,.46.09,1.34.1,1.46a13.47,13.47,0,0,1,.16,2.25A9.58,9.58,0,0,1,20,45.9c0-.51,0-1.68.26-1.84Zm9.87.43a5.94,5.94,0,0,1,.54,1.41c0,.11.17.88.18,1s-.6-.31-.55-.55c.19-.87-.39-1.76-.17-1.86ZM18.91,46.6c.14,0,.18.23.23.32a3.71,3.71,0,0,1,0,1c-.05.08-.05.21.1.21s.43-.17.25.17c-.07.15-.16.22-.17.32s.06.27.17.2.2-.32.3-.36.37,0,.38.15,0,.29-.19.31-.42,0-.46.08-.17.26-.27.25,0,.07,0,.23,0,1-.16,1.06-.15-.28-.06-.51-.13-.54-.19-.7a5.82,5.82,0,0,0-.14-.77c-.1-.25-.21-.43-.27-.44s-.17.47-.35.61-.29.22-.31.29-.05.19.09.2a1.17,1.17,0,0,1,.48.12.68.68,0,0,1,.23.59.89.89,0,0,1-.35.61c-.19.06,0-.64,0-.73s-.13-.25-.27-.33a.55.55,0,0,0-.45.06.3.3,0,0,0-.13.33.73.73,0,0,1,.12.59c-.08.2-.5.3-.5-.37,0-.3.12-.6.27-.64s0-.73.15-1.23c.06-.21.12-.7.53-.71.14,0,.31.19.47.18s-.07-.61.06-.63.25-.48.4-.51Zm-5,.4a1.39,1.39,0,0,1,.08.34,2.88,2.88,0,0,1-.08.5c0,.23-.26.07-.26-.31C13.62,47.4,13.7,47,13.88,47Zm17,.06c.13,0,.21,0,.19.09a1.16,1.16,0,0,1-1.05.39c-.1,0,.13-.3.28-.39A1.9,1.9,0,0,1,30.92,47.06Zm-2.48,0c.1,0,.15.24.22.33s.38.38.3.41a.56.56,0,0,1-.44-.12c-.15-.12-.22-.52-.12-.6a0,0,0,0,1,0,0Zm-13,.51c.22,0,.17.37,0,.63s-.72.92-.69,1.08a4.1,4.1,0,0,1,0,.43c0,.55-.17.89-.25.85s.14-.43,0-.83-.58-.29-.67-.21,0,1.11-.14,1.05a1,1,0,0,1-.23-.86.94.94,0,0,1,.86-.62c.37,0,.4-.25.41-.53s.15-.89.58-1Zm-1.06,0h0c.23.16-.09,1.24-.39,1.32-.62.17-.84,1-.9.78s-.24-1.31,0-1.41.22.31.61.22.43-.93.63-.92Zm16.53,0c.08,0,.36.52.36.73s0,.45-.12.55-.17,0-.2-.11.16-.38.09-.61-.22-.54-.13-.56Zm-23.47,0a.17.17,0,0,1,.11.09c0,.16-.13.47-.13.73a1.49,1.49,0,0,1-.06.47,1.75,1.75,0,0,1-.34.53c-.1.13-.15.6-.46.72s-.94-.32-.7-.57.5.05.72-.1.32-.42.47-1.2c.1-.53.27-.68.39-.67Zm23.15.16c.13,0,.16.65.16.82s-.09.23-.16.18,0-.58-.16-.76S30.47,47.77,30.61,47.77Zm-22.07.14c.32,0,.35.12.56.36,0,0-.09.08-.29.25s.12.74,0,.89-.73.73-.77.36a5.77,5.77,0,0,0-.24-.89c0-.17,0-.17.17-.46s.45-.5.6-.51Zm21.25,0a.23.23,0,0,1,.25.25,1.9,1.9,0,0,0,.35,1.1c0,.05,0,.24,0,.28s.07,0,.12-.09.34-.09.42.14a.66.66,0,0,0-.46.14c-.06.06-.21.33,0,.46s.36.42.18.42-.38.08-.43-.19-.05-.4-.13-.84c-.05-.25-.21-.35-.36-.76s-.36-.58-.1-.84a.26.26,0,0,1,.2-.07Zm7,0H37a.92.92,0,0,1,.4.23c.11.13,0,.91.06,1s.29.31,1.37.85a.91.91,0,0,1,.17.57c0,.14,0,.5-.19.5s-.13-.1-.06-.42a.53.53,0,0,0-.16-.5.42.42,0,0,0-.38,0c-.14.08-.12.31-.07.61s.25.25.14.54c0,0-.35.13-.44-.06s.08-.28.09-.34a1.73,1.73,0,0,0,0-.73c-.13,0-.72-.6-.71-.74s0-.52-.26-.62c0,0-.07-.6-.5-.81,0-.11.22-.13.41-.13Zm-1.27.28a2,2,0,0,1,.55.15c.38.14.55.25.57.45a6.74,6.74,0,0,0,0,1.09,2.75,2.75,0,0,1,.18.63,2.51,2.51,0,0,1,0,.55c0,.09-.19.08-.3,0s.12-.53,0-1a1.07,1.07,0,0,0-.43-.42,2.17,2.17,0,0,1-.72-1c0-.17-.21-.36,0-.43a.41.41,0,0,1,.19,0Zm-19.85.83c.07,0,.22.08.43.28.38.36.13.67.1.68s.09-.32-.3-.64c-.08-.07-.3-.12-.39,0a.68.68,0,0,0,0,.74c.12.14.2.33.12.43s-.44.07-.59-.09a1.52,1.52,0,0,1,.17-1.19.61.61,0,0,1,.5-.21Zm4.28.08a.66.66,0,0,1,.48.27.8.8,0,0,1,.08.58c0,.1.08.29.08.41s-.18.15-.21.16-.21,0-.16-.2.07-.24.1-.34a.47.47,0,0,0,0-.33c-.05-.13-.48-.39-.64,0a.83.83,0,0,0,0,.52c.05.12.3.26.34.46s-.4,0-.48-.14a1.54,1.54,0,0,1-.06-.38,1.21,1.21,0,0,1,0-.8.43.43,0,0,1,.44-.24Zm11.39,0A1.82,1.82,0,0,1,32,50.55c0,.16-.42.22-.53.07s.14-.35,0-.67-.29-.7-.2-.72Zm-3.94.43a.19.19,0,0,1,.17.21c0,.12,0,.34-.05.37s-.15-.08-.2-.24,0-.34.08-.34Zm-11.71.05a.18.18,0,0,1,.18.15c0,.13,0,.32-.09.35s-.22-.12-.19-.25,0-.26.1-.25Zm2.07,0c.21.05.23.24.21.39s0,.27-.12.29-.16-.15-.17-.29,0-.41.08-.39Zm7.84,0c.05,0,.14.2.1.41s0,.26-.1,0S25.5,49.72,25.62,49.72Zm-11.32,0c.14,0,.08.19,0,.33s-.1.33-.2.23-.05-.52.08-.55Zm16.6,0h0c.11,0,.14.18.16.27a1.47,1.47,0,0,1,.07.55c-.06.11-.17.17-.3-.21a.81.81,0,0,1-.09-.38c0-.1.05-.21.13-.23ZM20,49.79c.11,0,.2.2.15.32s-.23.1-.27,0-.13-.3.12-.32Zm16.91,0,.1,0a1.74,1.74,0,0,1,.45.36c.09.1.38.51.21.85s-.07-.14-.08-.29a1,1,0,0,0-.45-.7c-.15-.11-.11.11-.16.18s-.17-.28-.17-.34,0-.1.1-.09Zm-29.45,0,.19.06c.27.14.65.33.51.82a.68.68,0,0,1-.73.52c-.22-.05.16-.37.25-.6s-.38-.76-.41-.3-.3.15-.2-.24a.36.36,0,0,1,.39-.26Zm22,.11c.06,0,.14.22.08.29s-.18.08-.17-.06,0-.2.09-.23Zm-23.48.19c.1,0,.23,0,.23.11s-.15.13-.08.3,0,.3-.13.16-.17-.47-.1-.54a.11.11,0,0,1,.08,0Zm.63.21c.18,0,.28.25.31.4s-.21.16-.17.26.06.4-.06.45-.54.1-.65-.06,0-.24.22-.31.18-.37.18-.37,0-.32.13-.37Zm30.68.08c.06,0,.13.28.13.39s-.13.42-.2.43-.08-.41-.06-.55,0-.29.13-.27Zm1.15.07c.09,0,.18.12.18.34s0,.45,0,.47-.11-.2-.14-.35-.15-.44,0-.46Zm-19.27.24c.13,0,.5.14.18.35a1.87,1.87,0,0,0-.59.69c-.05.09-.32.09-.32-.19,0-.44.61-.84.73-.85Zm-3,0c.07,0,.12,0,.12.08s-.17.19-.32.34a1,1,0,0,0-.27.64c.07.29-.09.31-.46.3s-.43,0-.42-.3a1.82,1.82,0,0,1,.31-.65.73.73,0,0,1,.6-.37,3.59,3.59,0,0,1,.44,0Zm2.38,0c.09,0,.13,0,.09,0a2,2,0,0,0-.54.47c-.07.1,0,.4-.08.48a1,1,0,0,1-.59,0c-.25,0,.42-1,.59-1s.39,0,.53,0Zm16.85,0a.21.21,0,0,1,.18.23c0,.13-.09.25-.22.15s-.15-.31,0-.37Zm-18.62,0h.53c.36,0-.13.28-.35.47s-.09.64-.23.68a2.48,2.48,0,0,1-.59,0c-.06,0,0-.37.2-.72.11-.18.25-.42.44-.42Zm-2.25.07c.23,0,.3.08.3.17s-.38.3-.46.46,0,.43-.14.53a2.6,2.6,0,0,1-.68.06c-.3,0-.14-.33,0-.63a.92.92,0,0,1,.9-.59Zm-2.7.06c.27,0,.17.2,0,.35a1,1,0,0,0-.39.81c0,.09-.66.16-.65-.06a1.31,1.31,0,0,1,.36-.79.76.76,0,0,1,.67-.31ZM13,51c.18,0,.39.11.31.15-.64.33-.43.9-.59.89h-.65c-.14,0,0-.37.08-.47a1.07,1.07,0,0,1,.77-.57Zm13.75,0a.82.82,0,0,1,.37.07,1.67,1.67,0,0,1,.54.52c.07.14.34.63.16.63-.35,0-.63,0-.68-.16s0-.45-.09-.54-.57-.49-.43-.51ZM28,51a.75.75,0,0,1,.56.26A1.74,1.74,0,0,1,29,52c0,.16-.09.16-.33.16s-.48.06-.43-.15a.58.58,0,0,0,0-.41c-.07-.11-.63-.58-.51-.58ZM10.62,51h.1c.18,0,.13.19-.12.24a.49.49,0,0,0-.39.49c0,.19.13.41-.12.41H9.71c-.21,0-.21-.52,0-.79a1.13,1.13,0,0,1,.88-.36Zm19.81,0,.3,0c.21,0,.25.17.3.23.22.29.54.54.54.67s-.17.19-.36.19-.43,0-.44-.23-.48-.54-.48-.81c0,0,.06-.06.14-.07Zm-1.25,0a1.24,1.24,0,0,1,.41.08,2.74,2.74,0,0,1,.67.84c0,.25-.41.18-.56.18-.36,0-.06-.53-.53-.87-.1-.07-.33-.21-.16-.23Zm-3.34,0a.84.84,0,0,1,.57.17c.48.38.32.62.2.49a1.32,1.32,0,0,0-.87-.46c-.11,0-.07-.2.1-.2Zm-16.43,0c.13,0,.22,0,.15.1a1.51,1.51,0,0,0-.3.81c0,.21-.31.18-.47.2s-.11-.38,0-.62.18-.42.38-.46a1.15,1.15,0,0,1,.26,0Zm22.76.06a1.5,1.5,0,0,1,.69.79c0,.08.1.43,0,.43h-.42c-.16,0-.09-.46-.43-.71s-.51-.51-.4-.51Zm1,0a1,1,0,0,1,.29,0c.27.07.68,1.12.42,1.13s-.58.14-.6-.29-.42-.56-.42-.78c0-.06.14-.1.31-.1Zm-24.64,0c.05,0,.09,0,.09.06a1.93,1.93,0,0,0-.19.73c0,.22-.64.22-.66.07a1.07,1.07,0,0,1,.48-.8.77.77,0,0,1,.28-.06Zm14.19,0a6.27,6.27,0,1,1-6.19,6.35,6.26,6.26,0,0,1,6.19-6.35ZM34,51.31h.12a.58.58,0,0,1,.56.29c.13.14.64.88.5.9s-.54.1-.68-.15-.34-.61-.43-.74c-.22-.29-.17-.32-.07-.31Zm-26.55,0c.14,0,.27.27.13.29s-.39.22-.35.38,0,.28-.25.28-.47-.25-.22-.56a.75.75,0,0,1,.69-.39Zm27.85.08a1.65,1.65,0,0,1,.46.06c.24.1.56.58.47.82s-.26.41-.41.25,0-.56-.28-.65-.45-.15-.51-.42c0,0,.11-.06.27-.06Zm1.16.09a1.62,1.62,0,0,1,.45.16c.27.12.45.7.33.83s-.43.17-.41-.26c0-.27-.19-.35-.36-.45s-.21-.26-.06-.28Zm-30.21.13c.2,0,0,.17-.07.37s.18.36,0,.36c-.36,0-.41,0-.36-.22.12-.48,0-.46.43-.51Zm16.44,0a5.81,5.81,0,1,0,5.89,5.73,5.81,5.81,0,0,0-5.89-5.73Zm15,.13a.5.5,0,0,1,.21,0c.25.14.54.77.08.73-.13,0,0-.43-.3-.57-.1-.05-.19-.18,0-.21Zm.77.06a.51.51,0,0,1,.51.67.21.21,0,0,1-.41-.09c0-.3-.2-.58-.1-.58Zm-15.28.21.19,0A18.7,18.7,0,0,0,23,54.25c-.1.92-.17,1.72-.16,2.07h-.22c0-.35-.09-1.14-.23-2.06A17.39,17.39,0,0,0,22,52.13l.21,0c0,.17.23.3.47.29s.45-.13.47-.3Zm.26,0,.21,0c0,.16.15.34.39.4a.45.45,0,0,0,.53-.17l.17.06a18.23,18.23,0,0,0-.88,2c-.34.86-.6,1.61-.69,2L23,56.33a20.49,20.49,0,0,0,.31-2,17.93,17.93,0,0,0,.17-2.16Zm-1.48,0a17.88,17.88,0,0,0,.23,2.15,18.85,18.85,0,0,0,.37,2.05.83.83,0,0,0-.21.06,20.33,20.33,0,0,0-.75-1.94,19.07,19.07,0,0,0-.94-2l.2-.08a.44.44,0,0,0,.54.16c.24-.06.4-.24.38-.41l.18,0Zm9.27.22a5,5,0,0,1-.16.55.67.67,0,0,0,.08.48.84.84,0,0,0,.39.24.68.68,0,0,0,.47,0,1,1,0,0,0,.23-.22c.2-.36,0-.54,0-.77,0,0,.22,0,.31.12a.69.69,0,0,1,.15.58c-.05.37.06.21.15.27s.17.13.17.25-.1.09-.11.16.07.3,0,.34-.08.3.09.25.09.11,0,.18,0,.55-.17.78a1.94,1.94,0,0,1-.44.41c-.21.12-.55,0-.65,0s-.17.16,0,.15a.24.24,0,0,1,.23.18.34.34,0,0,1-.06.32c-.13.12-.12.22,0,.17.27-.13.22-.25.43-.42a2.12,2.12,0,0,0,.34-.2,1.43,1.43,0,0,1,.43-.23c.21-.07.17-.48.55-.64a.9.9,0,0,1,.73,0c.17.09.54.33.34.72a1.27,1.27,0,0,1-.44.56c-.17.1-.15.43,0,.6s.15.29.28.39.23.1.54,0a1,1,0,0,1,.58-.2,2.42,2.42,0,0,1,1.06.24,1.16,1.16,0,0,1,.51.49,2.26,2.26,0,0,1,.09.41,1.93,1.93,0,0,1,.17.53c0,.4-.18.5-.15.67s-.07.7-.18.72-.34.11-.33.29a.56.56,0,0,1-.1.41c-.08.11-.3.26-.5.51s-.12.36-.2.48a1.23,1.23,0,0,0-.23.61c0,.23-.29.3-.35.44s-.33.11-.75.13c-.13,0-.06-.55.06-.64.45-.35.16-.5.43-.71a7.61,7.61,0,0,1,1-1.12c.14-.12,0-.16,0-.16s0-.62,0-.65.31-.48.29-.52-.16.19-.5.52a1.93,1.93,0,0,1-2.1.13c-.16-.15.06-.07.35-.6a2,2,0,0,0,.22-1c0-.37-.18-.75-.26-.76a2.58,2.58,0,0,1-.82,2.16c-.1.09,0,.35.12.32s0,.87-.07,1a1.05,1.05,0,0,0-.28.59,3,3,0,0,0-.09.66c0,.25.17.47.06.49s-.16.35-.14.42-.81.2-.94.05.16-.2.23-.28.07-.71,0-.75-.18-.25-.07-.29.21.19.26.25.18,0,.22-.09a.8.8,0,0,0,0-.59c-.1-.43-.6-.72-.54-.86s.14-.37.07-.42-.18.38-.32.42.15.42,0,.5a.45.45,0,0,0-.19.4,1.45,1.45,0,0,1-.33.8c-.14.14-.46,1-.76,1s-.8.1-.77-.06.54-.52.62-.69a9.91,9.91,0,0,0,.49-1.21,1.1,1.1,0,0,1,.07-.64c.14-.26.46,0,.72-.35a4.55,4.55,0,0,0,.72-1.09c.08-.23.21-.93.29-1.15.15-.41-.21.22-.32.46s-.16.48-.25.71a2.44,2.44,0,0,1-.46.76c-.21.21-.54.23-.53,0a1.34,1.34,0,0,1,.15-.27c0-.06.33-.63.6-1.12s.69-1.1.74-1.23A7.68,7.68,0,0,0,32,58.69c-.27.42-.56.9-.63,1a.27.27,0,0,1-.33.07c-.16-.06-.3-.28-.24-.41s.28-.28.39-.39a9,9,0,0,0,.73-.75,9.45,9.45,0,0,0,.65-1.11s-.68.92-.85,1.09a4.21,4.21,0,0,1-.73.63c-.18.08-.33,0-.38-.06s.18-.14.3-.22a7.31,7.31,0,0,0,.62-.58c.07-.07.32-.32.45-.47a2.08,2.08,0,0,0,.43-.7s-.23.33-.36.47-.43.44-.71.71a3.65,3.65,0,0,1-.48.38c-.11,0-.22.09-.29,0s0-.14,0-.22a6.87,6.87,0,0,0,.65-.45c0-.09-.42.14-.6.15s-.23-.16-.05-.25a1.81,1.81,0,0,0,.53-.35c.15-.25.12-.32-.12-.22s-.15.1-.32.11-.29-.15-.15-.25a1,1,0,0,1,.58-.23c.13,0,.52,0,.53-.13s-.3-.28-.54-.28-.15,0-.29.22a.6.6,0,0,1-.87-.1c0-.09.67.26.81-.11a.31.31,0,0,0-.2-.44.79.79,0,0,0-.4,0c-.23.13,0-.14.23-.2s.35-.13.24-.23-.17,0-.24-.12-.2-.88.22-1.13c.21-.12.24-.18.24-.29s-.21-.32-.28-.38a.24.24,0,0,1,0-.31c.06-.08.22,0,.16-.12a.42.42,0,0,1,0-.39.93.93,0,0,1,.49-.28Zm-16.41,0a3.57,3.57,0,0,1,1.09.09c.33.23.19.56,0,.8a4.78,4.78,0,0,1-.44.36v-.18h-.33v.22h.27c-.3.22-.62.46-.65.59h-.21v.22h.22a1.11,1.11,0,0,1-.36.74l0,0H14v.22h.22a.75.75,0,0,0,.11.5h-.21v.22h.32a.88.88,0,0,1,0,.15c.09.32.15.78-.28.79a16.54,16.54,0,0,1-1.65-.42v-.18h-.33v.13l-.15,0v-.11h-.32v.12a.85.85,0,0,0-.23,0l-.09,0v-.18h-.33v.08c-.29-.31-.28-1.18-.58-1.53a4.73,4.73,0,0,1-.64-2h.27v-.22h-.3a.68.68,0,0,1,0-.14c0-.22,3.19-.42,5-.41Zm-7,.07a3.44,3.44,0,0,1,.45.05c.15,0,.37,0,.5.1a.25.25,0,0,1,0,.36.5.5,0,0,0,0,.51c.12,0,0-.26.27-.42.07,0,.18-.17.22-.17s.13.49.09.63.09-.21.25-.22.18.39.1.45a.79.79,0,0,0-.19.33c0,.22,0,.32.18,0,.06-.11.22,0,.23,0a.29.29,0,0,1-.1.36.51.51,0,0,0-.18.2c-.08.15,0,.35.14.29s.11-.27.18-.31.17.07.21.15A.15.15,0,0,1,10,55c-.13.08-.32.33-.17.31s.4-.11.42-.08.09.23-.14.38a1.23,1.23,0,0,0-.28.23c-.07.08,0,.15.05.16.35.05.43-.2.59-.11s0,.36,0,.42-.49.31-.35.33a1.29,1.29,0,0,0,.56-.19c.14-.08.08.24,0,.32s-.45.09-.51.18.18.26.5.14a.54.54,0,0,1,.31,0,1.81,1.81,0,0,0,.46.17,1.49,1.49,0,0,0,.46-.13,1.19,1.19,0,0,1,.62-.11,1.57,1.57,0,0,1,1,.31,1,1,0,0,0,.72.17c.13,0,.58-.08.73-.41a1.21,1.21,0,0,0,0-1c-.18-.32-.32-.84,0-1.11s.24-.45.28-.71.55-.6.68-.69a.54.54,0,0,0,.27-.38.29.29,0,0,1,.39-.22c.16,0,.21.19.08.34a2,2,0,0,1-.38.41c-.09,0-.38.16-.35.31s.23.15.36.36,0,.39-.05.42l-.34.14c-.09,0-.13.12-.1.16s.23.11.26.18-.07.19-.21.2a.1.1,0,0,0,0,.2.25.25,0,0,1,0,.44.24.24,0,0,0-.18.2.14.14,0,0,0,.11.17c.11,0,.09.23,0,.28s-.14.13-.13.26.12.3-.06.48a.85.85,0,0,1-.53.29c-.23,0-.29.14-.55.14s-.72.17-.95.12-.13.09,0,.2c.47.45.1.94.3,1.2.44.58.78,1.17,1.05,1.23a3,3,0,0,1,.81.3c.13.11,0,.33-.06.4s-.12.28,0,.32.33-.08.45.08a6.66,6.66,0,0,0,.37.67.88.88,0,0,1-.05.76c-.14,0-.46.21-.64.11S16,63,16,62.8a1.82,1.82,0,0,0-.38-.66c-.16-.19-.5-.76-.75-.82s-1.09-.74-1.39-.72a3.54,3.54,0,0,1-2.27-1c-.21-.21-.15,0-.16.33a.44.44,0,0,1-.5.4c-.41-.06-.57-.42-.72-.57a.79.79,0,0,0-.48-.26c-.27-.07-.48-.77-.54-.8s.16.93,0,1.08-.57.77-.94.86a7.31,7.31,0,0,1-.88.19c-.21,0-.42.4-.18.52s0,.91.05,1a1.94,1.94,0,0,0,.49.11c.09,0,.12.19.18.35s.17.2.12.25-.11.08-.5,0a1.2,1.2,0,0,1-.77-.75,1.11,1.11,0,0,1-.06-.71l0-.08a.14.14,0,0,0,0-.21c-.06,0-.13-.43,0-.53a2.47,2.47,0,0,1,.6-.35,1.19,1.19,0,0,0,.5-.19A.28.28,0,0,0,7.48,60c0-.14-.18-.19-.3-.41a1.87,1.87,0,0,1,.09-1.22c.11-.16.32-.38.38-.48l0-.1c.06-.12.1-.33-.13-.3s-.34,0-.32-.42c0-.13,0-.45.14-.52s0-.43.1-.62.17-.57,0-.68-.12-.71-.12-.85-.25-.44-.37-.38,0,.25,0,.25a.37.37,0,0,0-.18-.13.9.9,0,0,1,.47.75c0,.6-.13.33-.27.64s0,.45-.12.56-.5-.33-.54-.5,0-.45.1-.54.1-.19.07-.39,0-.52.19-.53h0s-.11-.5,0-.59a.37.37,0,0,0,.2-.33.42.42,0,0,1,.1-.32s.33-.12.36-.19a.45.45,0,0,1,.38-.22Zm17,0,.2.08c-.07.16,0,.37.27.5a.44.44,0,0,0,.55,0l.15.1a19.06,19.06,0,0,0-1.36,1.69c-.55.75-1,1.4-1.18,1.71a.81.81,0,0,0-.18-.1c.16-.31.49-1,.83-1.91a19.31,19.31,0,0,0,.72-2Zm-4.21.06a16.39,16.39,0,0,0,.78,2c.37.85.71,1.57.88,1.87l-.18.11a20.44,20.44,0,0,0-1.23-1.67,17.63,17.63,0,0,0-1.4-1.65l.16-.13a.43.43,0,0,0,.56,0c.22-.13.33-.34.26-.5l.17-.08Zm7.39,0,2.15,0s0,.08.06.19H30v.3h.24a2,2,0,0,1,0,.35H30v.3h.25c0,.11,0,.25-.06.4H30v.3h.16c0,.48,0,1-.06,1s-.38.34-.53.34-.2-.73-.45-1.27l0-.06h.08v-.3H29c-.05-.11-.11-.23-.17-.34H29v-.31h-.3l-.24-.4h0v-.3h-.22a.81.81,0,0,0-.2-.21Zm3.68.08a.35.35,0,0,1,0,.7c-.19,0-.32-.23-.32-.37a.28.28,0,0,1,.31-.33Zm-16,.07v.22H16V52.7Zm17.73,0a2.32,2.32,0,0,1,.71.11h-.26v.3h.32v-.28l.37.13H34.4v.3h.32v-.21a10.62,10.62,0,0,1,1.22.64h-.23V54H36v-.25c.44.28.74.49.74.49l-.06,1.57H36.4v.3h.31l0,.38H36.4v.3h.28v.3s-1.51.06-1.5-.16a.66.66,0,0,0,0-.14h.2v-.3H35.2a2.41,2.41,0,0,0,0-.38h.18v-.3h-.2a1.78,1.78,0,0,0,0-.28h.25v-.3h-.33v.1c-.18-.33-.48-.31-.79-.47l-.32-.16h.13v-.3h-.33v.21l-.35-.16s-.06-.28-.11-.55h.23v-.31h-.28v-.07a4,4,0,0,0-.2-.76,1,1,0,0,1,.35-.06Zm-19.92,0V53h.33v-.22Zm.49,0V53h.33v-.22Zm.47,0V53h.33v-.22Zm.54,0V53h.33v-.22Zm13.83,0v.3h.32v-.3Zm.58,0v.3h.33v-.3Zm-16.45,0V53h.33v-.22Zm-.74,0V53h.33v-.22Zm21.17.1v.3h.33v-.3Zm-22.89,0v.22h.33v-.22Zm.6,0v.22h.33v-.22Zm.6,0v.22H12v-.22ZM7.4,53.1c-.15,0-.26.33-.19.43s.12,0,.12-.14.21-.29.07-.29ZM26,53.17l.17.13a.43.43,0,0,0,.13.54.44.44,0,0,0,.55.12l.11.14a18.59,18.59,0,0,0-1.75,1.28c-.72.57-1.33,1.09-1.58,1.34a.67.67,0,0,0-.15-.14c.24-.26.74-.88,1.29-1.63A19.79,19.79,0,0,0,26,53.17Zm-22.13.09c.07,0,.16.06.26.18a6.47,6.47,0,0,1,.61,2.62c0,.52.15,2.75.09,3.77a7.1,7.1,0,0,1-.56,2.24c-.16.27-.15.15-.12,0a7.73,7.73,0,0,0,.39-2.23c0-.9,0-3.45-.09-3.77a7.85,7.85,0,0,0-.38-2c-.07-.15-.34-.51-.33-.63s.06-.22.13-.22Zm15.48,0A20.72,20.72,0,0,0,20.67,55,20.63,20.63,0,0,0,22,56.6a1.06,1.06,0,0,0-.15.15c-.26-.24-.88-.74-1.62-1.29a17.8,17.8,0,0,0-1.78-1.23l.12-.17a.45.45,0,0,0,.55-.13.46.46,0,0,0,.12-.55l.14-.11Zm-11.72,0c-.1,0-.26.22-.18.41s.21.23.15-.11c0-.13.12-.22.06-.28l0,0ZM38,53.35a6.09,6.09,0,0,1,.42,2.57c0,1.41.12,6.17-.19,7-.14.37-.34-5.35-.34-5.81s-.18-3.56.09-3.76Zm-33.09,0A4.77,4.77,0,0,1,5.35,55c.06.45.09,2.29.09,2.66,0,.76.21,4.12-.23,5.13-.1.22-.36.63-.42.5A4.78,4.78,0,0,1,5,62.65c.09-.48.1-1.47.14-2s0-2.39,0-3.09c0-.32-.11-2.33-.18-2.89a7.19,7.19,0,0,1-.06-1.23s0,0,0,0Zm8.55,0v.23h.33v-.23Zm.49,0v.23h.33v-.23Zm.47,0v.23h.33v-.23Zm15,0v.31h.33v-.31Zm10.06,0a5.8,5.8,0,0,1,.63,2.22,23.8,23.8,0,0,1,.07,4,13.16,13.16,0,0,1-.52,2.46A19.09,19.09,0,0,1,39.48,59c0-.51,0-2.72-.09-3.43a7.87,7.87,0,0,1,0-2.06Zm-29,0v.22h.33v-.22Zm.65,0v.22h.33v-.22Zm.55,0v.22H12v-.22Zm.56,0v.22h.33v-.22Zm.68,0v.22h.32v-.22Zm25.83,0c.35.19.35,2,.35,2.79,0,.45.1,3.13.07,4.07a21.48,21.48,0,0,1-.27,2.52c0,.17-.25-5-.25-5.34s0-4.09.1-4ZM8.11,53.6a.51.51,0,0,0-.18.07.27.27,0,0,0,0,.42c.08.06.19,0,.12-.19s.11-.18.19-.23,0-.07-.09-.07Zm25.72,0v.31h.33v-.31Zm.49,0v.31h.33v-.31ZM5.5,53.7a22.33,22.33,0,0,1,.71,4.85,5.52,5.52,0,0,0-.51.68s-.34-5.1-.21-5.52Zm29.47,0V54h.33v-.31Zm-5.53.4v.3h.33v-.3Zm-21,0s0,0,0,0c-.1.25-.28.3-.24.61s.13.29.21.24-.11-.17.09-.43,0-.46,0-.45Zm23.66,0a1.36,1.36,0,0,0-.58.13c-.39.18-.57.8-.41.72s.25-.2.31-.16-.07.08-.08.15a.23.23,0,0,0,.2.25c.07,0,.06-.1.08-.19s.08-.17.2-.13.07.24-.15.33-.05.25.28.1a.58.58,0,0,0,.39-.49c0-.18-.21,0-.31-.19s.09-.27.23-.41,0-.11-.16-.11Zm-5,0a1.15,1.15,0,0,1,.14.17.44.44,0,0,0,0,.56.45.45,0,0,0,.5.26l.07.15a19.24,19.24,0,0,0-2,.79c-.86.37-1.57.71-1.88.89a1.74,1.74,0,0,0-.11-.18c.3-.18.95-.66,1.67-1.23A20.34,20.34,0,0,0,27,54.16Zm-14.12.09v.22h.33v-.22Zm1.11,0v.22h.33v-.22Zm26.77,0a14.07,14.07,0,0,1,.25,4.32,12.94,12.94,0,0,1-.4,2.14c-.09.23,0-3,0-3.85a11.83,11.83,0,0,1,.13-2.61Zm-28.58,0v.22h.33v-.22Zm1.24,0v.22h.33v-.22Zm5,0a18.41,18.41,0,0,0,1.68,1.36c.74.55,1.4,1,1.7,1.18a1.14,1.14,0,0,0-.1.19c-.31-.17-1-.49-1.9-.84a19.26,19.26,0,0,0-2.05-.73l.09-.18a.44.44,0,0,0,.49-.27.44.44,0,0,0,0-.56l.12-.15Zm-8,0v.22h.33v-.22Zm.65,0v.22h.33v-.22Zm.55,0v.22H12v-.22Zm22.74.1v.3h.33v-.3Zm.57,0v.3h.33v-.3Zm.74.05v.3H36v-.3Zm-31.92,0a13.12,13.12,0,0,1,.26,2.54c0,.51,0,3.55-.32,3.56,0,0,0-2.23,0-2.88s-.07-3.11,0-3.21,0,0,0,0Zm32.61,0v.3h.32v-.3Zm-27.61.1a.11.11,0,0,0,0,0c0,.14-.3.25-.33.43s.13.37.14.23.22-.28.26-.42,0-.3,0-.29Zm20.75.25v.3h.32v-.3Zm6.86.25v.3h.32v-.3Zm-27.26,0h0c-.16.22-.28.22-.39.45s0,.53,0,.35.14-.16.31-.35.09-.45.05-.45Zm26.66,0v.3h.33v-.3ZM11,55.26v.22h.33v-.22Zm.62,0v.22H12v-.22Zm.56,0v.22h.33v-.22Zm.7,0v.22h.33v-.22Zm.52,0v.22h.32v-.22Zm14.33.11a1.8,1.8,0,0,1,.08.21.44.44,0,0,0-.16.54c.07.23.25.39.42.37l0,.17a17.78,17.78,0,0,0-2.16.23c-.92.14-1.7.29-2,.38a.66.66,0,0,0-.06-.2c.34-.1,1.08-.39,1.93-.76a21.57,21.57,0,0,0,2-.94Zm-10,.15a18.71,18.71,0,0,0,2,.88,20.69,20.69,0,0,0,1.95.71,1.17,1.17,0,0,0-.05.2c-.34-.08-1.13-.2-2.05-.31a18.73,18.73,0,0,0-2.16-.18l0-.2c.16,0,.34-.14.4-.38a.44.44,0,0,0-.17-.54,1.34,1.34,0,0,1,.07-.18Zm-8.39.23c-.06,0-.1.18-.3.34a.46.46,0,0,0-.18.52c.09.21.15.25.2,0a.59.59,0,0,1,.21-.33.39.39,0,0,0,.07-.51Zm26.46.08v.3h.33v-.3ZM6.21,56c.17,0,.8.72.8.87s-.25,1.46-.53,1.6S6,56,6.21,56Zm6.71,0v.22h.33V56Zm-1.74,0v.22h.33V56Zm.58,0v.22h.32V56Zm.46,0v.22h.33V56Zm1.24,0v.22h.33V56ZM30,56.13c.06,0,.19.07.14.12a.21.21,0,0,1-.21,0c-.05,0-.07-.16.07-.17Zm.48,0c.18,0,.16.13.09.17a.3.3,0,0,1-.26,0c-.06-.05.1-.13.17-.12Zm3.42.09a.25.25,0,0,0-.23.24c0,.13.23.08.3,0a.16.16,0,0,0-.07-.24Zm1.91.17v.3h.33v-.3Zm-26.28,0c-.09,0-.27.18-.34.35s.06.53.15.53.13-.31.14-.42.1-.46,0-.46Zm3.94.08v.23h.33V56.5Zm-.5,0v.22h.32v-.22Zm1.14,0v.22h.33v-.22Zm8.67.08a.88.88,0,1,1-.87.89.89.89,0,0,1,.87-.89Zm5.38.11a1.64,1.64,0,0,1,0,.23c-.16,0-.29.23-.29.47s.14.45.31.47c0,.06,0,.12,0,.17A20,20,0,0,0,26,57.74c-.93-.1-1.72-.16-2.07-.16v-.21c.35,0,1.14-.1,2.06-.24a18.87,18.87,0,0,0,2.13-.4Zm1.72.07c.06,0,.26.25.34.71H30v.22h.25a1.82,1.82,0,0,1,0,.33v0H30v.22h.24c0,.13,0,.25,0,.38H30v.22h.3a3.11,3.11,0,0,0,.45,1.14h-.1v.22h.27a1,1,0,0,1,.23.56s-.17.39-.34.82v-.07h-.32v.22h.27c-.07.16-.13.32-.18.47H30.3v.22h.19a.45.45,0,0,0,0,.17c0,.27-.66.06-.69.34s.14.53-.07.52l-3.81.08a3.78,3.78,0,0,0,.88-.42v.13h.33v-.22h-.2l.17-.15A15.5,15.5,0,0,0,28.82,61H29v-.22h0a.89.89,0,0,0,.09-.16l.17-.41v.11h.33v-.22h-.29c0-.16.11-.33.16-.52h.21v-.22h-.15a12.21,12.21,0,0,0,.38-2.53s0,0,0,0Zm11.53,0a.79.79,0,0,1,.37.62.82.82,0,0,1-.34.69,4,4,0,0,1,0-1.31Zm-31.64,0c-.18,0-.19.6-.17.77s.33.19.27,0,0-.8-.1-.79Zm7.63.07a16.94,16.94,0,0,0,2.14.34,19.63,19.63,0,0,0,2.07.18s0,.07,0,.1a.45.45,0,0,1,0,.11c-.35,0-1.14.09-2.06.22a18.87,18.87,0,0,0-2.13.4l0-.2a.44.44,0,0,0,.29-.48c0-.25-.13-.45-.3-.47,0-.07,0-.13,0-.2Zm5.39,0a.56.56,0,0,0-.56.56h0a.56.56,0,0,0,.56.56h0a.56.56,0,0,0,.56-.56h0a.56.56,0,0,0-.56-.56Zm-19.7.4a.72.72,0,0,1,.46.65c0,.52-.48.8-.42.59a2.19,2.19,0,0,0-.06-1.2s0,0,0,0Zm7.17,0s0,0,0,0,.12.26.21.3.16,0,.11-.14a.35.35,0,0,0-.28-.19Zm13.7.3c.34.08,1.13.2,2.05.3a17.19,17.19,0,0,0,2.16.16l0,.23c-.17,0-.34.15-.4.39a.42.42,0,0,0,.17.53l-.06.16a18.23,18.23,0,0,0-2-.88c-.86-.34-1.61-.6-2-.69a1.17,1.17,0,0,0,.05-.2Zm-2.33,0a1.17,1.17,0,0,0,.05.2c-.33.1-1.08.38-1.93.75a16.75,16.75,0,0,0-2,.93l-.08-.18a.44.44,0,0,0,.16-.54c-.06-.24-.24-.4-.41-.38l0-.2a17.15,17.15,0,0,0,2.15-.22c.92-.13,1.71-.27,2.05-.36Zm-18.79,0s.09.12.09.27,0,.26-.09.26-.09-.12-.09-.26S2.78,57.73,2.83,57.73Zm21,.24a20.56,20.56,0,0,0,1.91.83,17.67,17.67,0,0,0,2.05.71,2.14,2.14,0,0,1-.1.22.52.52,0,0,0-.46.82,1.33,1.33,0,0,1-.14.19,18.29,18.29,0,0,0-1.67-1.38c-.74-.56-1.39-1-1.7-1.19a.78.78,0,0,0,.11-.2Zm-2.15,0a1.08,1.08,0,0,0,.11.18c-.3.18-.95.65-1.68,1.22a21.52,21.52,0,0,0-1.65,1.4c0-.05-.08-.09-.11-.15a.44.44,0,0,0,0-.56c-.13-.21-.34-.32-.5-.25a1.08,1.08,0,0,1-.08-.19,18.4,18.4,0,0,0,2-.77A18.47,18.47,0,0,0,21.71,58Zm-6.16.23a.85.85,0,0,1,.32,0c.06,0,.08.13.1.27h-.31v.26H16v-.09a3.35,3.35,0,0,0,.51,1.66l.12.19h-.26v.26h.33v-.15A22.42,22.42,0,0,0,18.25,63c.22.14,0,.21,0,.21a5.6,5.6,0,0,1-1.16,0c-.08-.07,0-.21-.12-.52h.29v-.27h-.34v.15l-.07-.15c-.28-.52-.65-1-.7-1.13A1.13,1.13,0,0,0,16,61h.14V60.7h-.33a.75.75,0,0,0-.56-.21c-.18,0-.36-.17-.51-.41h.1v-.26h-.24c-.29-.62-.42-1.45-.21-1.48,0,0,.7-.1,1.14-.11Zm8.14,0c.26.24.87.75,1.61,1.31a17.8,17.8,0,0,0,1.78,1.23l-.1.14a.45.45,0,0,0-.55.13.44.44,0,0,0-.11.55l-.18.14A19.3,19.3,0,0,0,24.88,60c-.57-.73-1.09-1.34-1.33-1.59l.14-.15Zm-1.81,0,.15.15c-.24.25-.74.87-1.3,1.61a17.8,17.8,0,0,0-1.23,1.78c-.05,0-.11-.07-.15-.11a.45.45,0,0,0-.14-.55.44.44,0,0,0-.54-.12,1,1,0,0,1-.13-.16,19.84,19.84,0,0,0,1.75-1.27c.73-.57,1.34-1.08,1.59-1.33Zm1.59.19c.18.3.65.95,1.22,1.68a18.29,18.29,0,0,0,1.39,1.65L26,61.9a.53.53,0,0,0-.82.49l-.2.09a17.54,17.54,0,0,0-.77-2c-.36-.86-.7-1.58-.87-1.88l.18-.11Zm-1.36,0a1.18,1.18,0,0,0,.19.11c-.17.3-.5,1-.85,1.89a19.26,19.26,0,0,0-.73,2.05l-.17-.08a.44.44,0,0,0-.27-.49.44.44,0,0,0-.56,0l-.17-.13a18.78,18.78,0,0,0,1.37-1.67c.56-.75,1-1.4,1.19-1.71Zm-7.68.08v.26h.33v-.26Zm.64,0v.26h.33v-.26ZM7,58.56h.1l0,.24-.23,0a.33.33,0,0,0-.17.29c0,.29.07.51-.23.49s-.44.1-.51-.11.24-.67.39-.8A1.12,1.12,0,0,1,7,58.56Zm16.22,0a19.52,19.52,0,0,0,.74,1.94,19.91,19.91,0,0,0,.92,2l-.16.06a.45.45,0,0,0-.54-.16c-.24.07-.4.25-.37.42l-.22,0a19.42,19.42,0,0,0-.22-2.15c-.13-.92-.27-1.71-.36-2.05a.83.83,0,0,0,.21-.06Zm-.82,0,.21.06c-.08.34-.21,1.12-.32,2a16.37,16.37,0,0,0-.18,2.16l-.19,0c0-.17-.14-.34-.38-.41a.46.46,0,0,0-.54.18l-.2-.08a18.52,18.52,0,0,0,.9-2c.34-.86.61-1.61.7-2Zm.52.07c0,.35.09,1.14.21,2.06a19.69,19.69,0,0,0,.39,2.13l-.18,0a.46.46,0,0,0-.48-.29.44.44,0,0,0-.47.31l-.21,0a19.55,19.55,0,0,0,.34-2.14,20.7,20.7,0,0,0,.19-2.07h.21Zm-7.83.41v.27h.33v-.27Zm.59,0v.27H16v-.27Zm-1.14.13v.27h.34v-.27Zm15.46,0v.22h.32v-.22Zm-14.15.56v.27h.33V59.8Zm-10,0a4.38,4.38,0,0,1,.44.08c.33,0,.51-.1.5.25,0,.18-.56.25-.7.51a10,10,0,0,0-.19,1.9c-.06.63-.66.74-.53.6A1.7,1.7,0,0,0,5.63,62a7.9,7.9,0,0,1,0-2.15.23.23,0,0,1,.12-.06Zm9.37.12v.27h.33v-.27Zm14.71.16v.22h.33v-.22ZM9,60.3a2.54,2.54,0,0,1,1.11.44H10V61h.34V60.9h0c.43.33,2-.11,2.35.38l.09.09h-.08v.26h.34v-.1c.48.21,1.19.26,1.31.85.16.75-.29.83-.45.85s-5.18.06-5.31,0-.6,0-.82-.38l-.06-.11h.13v-.26H7.6c0-.06-.07-.12-.11-.17h.22v-.26H7.38v.14a.27.27,0,0,0-.14-.05c-.18,0,0-.7,0-.84s0,0,0,0,0,0,0,0a2.25,2.25,0,0,0,1.59-.91.26.26,0,0,1,.21-.1Zm27,.29a.1.1,0,0,1,.07.15c-.11.13-.43.14-.72.44V61h-.33v.22h.26A1.92,1.92,0,0,0,35,62a3.31,3.31,0,0,1-.54,1.06v0h-.33v.3h.13c-.13.16-.23.26-.23.26a.61.61,0,0,1-.32-.26h.14V63h-.26a.8.8,0,0,1,0-.18.17.17,0,0,0,0-.07h.24v-.37h-.25q0-.26.09-.54v.29h.33V61.8H33.6c.08-.32.18-.66.29-1.06a3.11,3.11,0,0,0,2-.13.16.16,0,0,1,.11,0ZM8.8,60.74V61h.34v-.27Zm.61,0V61h.34v-.27Zm19.81,0V61h.33v-.22Zm.63,0V61h.32v-.22Zm.62,0V61h.32v-.22Zm-16.81.28a.93.93,0,0,1,.35.09,3.15,3.15,0,0,1,.77.43,4.77,4.77,0,0,1,.6.83c.11.32-.16.49-.18.73s-.07.29-.26.3-.58,0-.52-.1.35-.4.42-.52a1.15,1.15,0,0,0-.11-.7c-.08-.11-.38-.65-.56-.69s-.4-.19-.52-.22c-.28-.08,0-.15,0-.15Zm20.66,0v.33h.33v-.33Zm2.77,0s.44.49.52.56.19.48.06.47-.23.66-.3.71.06.33-.07.36l-.62.09c.06,0-.08-.39.11-.48.34-.16.29-.62.3-.68s-.24-.22-.26-.39a3.8,3.8,0,0,1,.26-.64Zm-29.47.2v.27H8v-.27Zm.63,0v.26h.34v-.26Zm.55,0v.26h.34v-.26Zm.68,0v.26h.34v-.26Zm.51,0v.26h.34v-.26Zm.59,0v.26h.34v-.26Zm6,0v.26h.34v-.26Zm12.06,0v.23h.33v-.23Zm.63,0v.23h.33v-.23Zm-17,0v.27h.33v-.27Zm17.58,0v.22h.33v-.22ZM11,61.51v.26h.34v-.26Zm.59,0v.26H12v-.26Zm22.54.29v.29h.33V61.8Zm-2.11.11c.07,0,.08.33,0,.35s-.09.18-.05.28-.12.12-.17.05a.4.4,0,0,1,.06-.45c.11-.09.11-.22.16-.23Zm4.47.1c.11,0,.15.15.1.29s-.29.3-.27.46,0,.48,0,.54-.1,0-.16-.18a1.54,1.54,0,0,1,0-.81c.08-.18.15-.27.31-.29Zm-28.27.05v.26h.34v-.26Zm.64,0v.26h.33V62.1Zm.52.09v.27h.34v-.27Zm1.17,0v.27h.34v-.27Zm1.61,0v.27h.33v-.27Zm-2.2,0v.27h.34v-.27Zm1.12,0v.27h.34v-.27Zm.58,0v.26H12v-.26Zm1.11,0v.26h.34v-.26Zm.64,0v.26h.34v-.26Zm15.71.05v.22h.32v-.22Zm.54,0v.22H30v-.22Zm-1.77.1v.22h.33v-.22Zm.67,0v.22h.33v-.22Zm5.51.1v.25h.32v-.25Zm-25.85.3v.27h.34v-.27Zm.72.09v.27h.34v-.27Zm.51,0v.27h.34v-.27Zm.56,0v.27h.34v-.27Zm.54,0v.27h.34v-.27Zm1.61,0v.27h.34v-.27Zm1.25,0v.27h.34v-.27Zm-2.33,0v.26h.34v-.26Zm.58,0v.26H12v-.26Zm1.11,0v.26h.34v-.26ZM28,63v.22h.33V63Zm.57,0v.22h.33V63Zm.66,0v.22h.33V63Zm-1.89.05v.22h.33v-.22Zm-20.26.19c.08,0,.19.09.17.11a3.62,3.62,0,0,1-.34.34c-.06,0,.37.3.28.33a.49.49,0,0,1-.34,0c-.08,0-.36-.34-.34-.45s.41-.29.53-.33Zm.87.11c.14,0,.24.18.12.22A.21.21,0,0,0,8,64c.16.12,0,.18-.27.16a.31.31,0,0,1-.26-.43.62.62,0,0,1,.44-.33Zm4,0c.14,0,.25.09.21.13s-.46.24-.44.35.26.41.22.47a.54.54,0,0,1-.45.06c-.13-.07-.4-.41-.34-.49a2.12,2.12,0,0,1,.74-.52Zm1.71,0c.17,0,.36.09.26.19s-.4.2-.32.32.41.55.28.6a1.31,1.31,0,0,1-.56,0c-.16,0-.32-.4-.32-.51a1,1,0,0,1,.6-.63Zm-5,0c.12,0,.28.14.2.19s-.29.17-.24.26.24.19.12.22-.15.07-.27,0a.58.58,0,0,1-.19-.45.6.6,0,0,1,.38-.22Zm.82,0c.17,0,.41.09.35.15a2.61,2.61,0,0,1-.37.19c-.05,0,.17.21.16.23a.21.21,0,0,1-.19.09c-.1,0-.36-.27-.45-.4s.38-.25.5-.26Zm1.3,0c.2,0,.46,0,.32.12s-.42.23-.52.32.29.33.27.4-.15.14-.34.13-.7-.48-.61-.6a2.23,2.23,0,0,1,.88-.37Zm26.54,0a.44.44,0,0,1,.33.25c.08.12.19.17.08.25s-.21.13-.25.08-.05-.18-.11-.29-.21-.27-.11-.29Zm-19.89,0s.32.2.27.23-.75.4-.86.48a.26.26,0,0,0,0,.38c.12.09.08.25-.21.27s-.74-.69-.55-.83a4.79,4.79,0,0,1,1.39-.53Zm-4.63,0c.09,0,.24,0,.2.05s-.36.25-.36.33.25.55.18.58-.35.11-.42,0-.32-.33-.27-.46a1.25,1.25,0,0,1,.59-.5Zm5.94,0h0a1.49,1.49,0,0,0,.29.14c.13.07-.91.43-1.05.67s.15.46.09.54a1.1,1.1,0,0,1-.63,0c-.29-.11-.47-.56-.35-.64a8.92,8.92,0,0,1,1.62-.72Zm-4.12,0c.12,0,.3.12.24.15s-.41.12-.4.29a1.08,1.08,0,0,0,.21.56c.09.08-.21.13-.37,0a1,1,0,0,1-.36-.54c0-.12.35-.45.63-.51Zm22.08,0a1.16,1.16,0,0,1,.45.38c0,.1.09.17,0,.21a.3.3,0,0,1-.23,0,.34.34,0,0,1-.09-.18s-.31-.29-.29-.32.12-.1.12-.1Zm-21,0c.23,0,.4.1.4.15s-.51.23-.62.39.34.43.2.53a.55.55,0,0,1-.59,0c-.25-.18-.36-.64-.25-.73a2,2,0,0,1,.86-.37Zm20.35.14a.24.24,0,0,1,.18.06,2,2,0,0,1,.35.41s-.15.08-.22.16-.14.12-.16-.08-.48-.51-.27-.54Zm-16.82,0c.11,0,.26.08.46.09s-.52.17-.59.35a.85.85,0,0,0,.12.58c.06.06-.5.18-.62.14s-.37-.52-.22-.61a4.08,4.08,0,0,1,.85-.55Zm6.46,0h0c.13.06.78.6.78.79s0,.37-.31.37-.48-.1-.48-.19.16-.33,0-.47-.49-.38-.36-.41.24-.11.32-.1Zm9,.06a.17.17,0,0,1,.16.09c.06.1.24.44.18.54s-.18.3-.22.24-.34-.77-.23-.84l.11,0Zm.76,0c.18,0,.39.47.39.56s-.27.23-.3.2a1.8,1.8,0,0,1-.25-.63c0-.12.08-.13.16-.13Zm-15.38,0a3.64,3.64,0,0,0,.36.15s-.41.23-.18.58-.27.32-.45.32-.31-.39-.26-.52.53-.53.53-.53Zm6.58,0a.37.37,0,0,1,.19.07c.09.06.47.38.49.53s.11.45-.09.5-.51.07-.45-.07a.49.49,0,0,0,.07-.34c-.09-.18-.53-.67-.38-.68Zm5.11,0a.76.76,0,0,1,.47.17,1.1,1.1,0,0,1,.27.78c0,.14-.22.14-.36.12s.07-.17,0-.41-.37-.42-.48-.51.05-.15.1-.15Zm-3,0c.07,0,.12,0,.27.12s.61.38.54.59,0,.36-.26.34-.6,0-.46-.15.21-.25,0-.43S28.46,64,28.6,64l.18,0Zm2.06,0a.88.88,0,0,1,.31.07c.27.08.64.44.58.56s-.21.38-.39.41-.46,0-.43-.11.11-.29,0-.41-.57-.42-.32-.49a.61.61,0,0,1,.23,0Zm-5.89,0c.11,0,.45.45.53.53s.1.37,0,.44-.77.13-.65,0a.3.3,0,0,0,0-.39c-.07-.1-.41-.41-.3-.43a1.28,1.28,0,0,0,.43-.14Zm9,0c.13,0,.29,0,.3.07s.22.62.13.68-.28.15-.36.09-.36-.76-.28-.81A.55.55,0,0,1,34,64Zm-4.24,0a.39.39,0,0,1,.35.15c.12.12.41.52.38.72s-.08.17-.29.17-.29,0-.24-.21.07-.23,0-.34-.35-.48-.2-.49Zm-1.9,0a1.29,1.29,0,0,1,.29,0,.87.87,0,0,1,.46.48c0,.06-.06.48-.29.5s-.65,0-.56-.16.15-.32,0-.45-.37-.33-.23-.37a1.29,1.29,0,0,1,.29,0ZM33,64a.56.56,0,0,1,.32.07.73.73,0,0,1,.21.58c0,.19,0,.33-.24.33s-.07-.22-.16-.33-.43-.57-.25-.63L33,64Zm-12.39.11a3.27,3.27,0,0,0,.68.12c.21,0-.13.19-.1.27s.11.3.16.46-.45.13-.61.09a.74.74,0,0,1-.3-.61.64.64,0,0,1,.17-.33Zm3.7,0c.1,0,.46.64.28.79s-.75.12-.67,0a.34.34,0,0,0,.12-.37c-.05-.07-.19-.36-.09-.38a1.82,1.82,0,0,0,.36-.09Zm-.71.14c.07,0,.28.59.08.69s-.62.12-.74,0-.09-.55,0-.57.58-.06.67-.09Zm-2.08,0a6.75,6.75,0,0,0,1,.12c.15,0,.08.41.11.56s-.76.1-.88,0-.37-.71-.2-.68Zm1.19,1c.25,0,.71,0,.71,0s-.11.49-.23.51a3.45,3.45,0,0,1-.87,0c0-.08.12-.48.24-.51Zm-.86,0a2.37,2.37,0,0,1,.55,0s-.15.49-.37.5-.83,0-.83,0a.52.52,0,0,1,.27-.45,1.21,1.21,0,0,1,.38,0Zm-1,0c.12,0,.21,0,.21.09a.45.45,0,0,1-.48.4c-.25,0-.61.09-.44-.2.06-.1.06-.28.31-.28Zm2.79,0,.68,0a1.89,1.89,0,0,1-.23.5,3.37,3.37,0,0,1-.71,0c-.06,0,.18-.53.18-.53Zm-3.86,0c.12,0,.21,0,.21.08a.43.43,0,0,1-.47.38c-.26,0-.62.09-.45-.18.06-.11.06-.27.32-.27s.27,0,.39,0Zm-2,0c.08,0,.15,0,.15.07a.35.35,0,0,1-.34.33c-.18,0-.44.07-.32-.16s0-.23.23-.23a2.62,2.62,0,0,1,.28,0Zm1,0c.12,0,.21,0,.21.08a.44.44,0,0,1-.47.36c-.26,0-.62.08-.45-.18.06-.1.06-.25.32-.25s.27,0,.39,0Zm-2.59,0c.08,0,.15,0,.15.07a.35.35,0,0,1-.34.32c-.18,0-.44.07-.32-.16s0-.22.23-.22Zm.83,0c.08,0,.14,0,.14.07a.33.33,0,0,1-.33.32c-.19,0-.44.07-.32-.16,0-.08,0-.22.22-.22Zm-1.62,0c.08,0,.15,0,.15.07a.32.32,0,0,1-.34.29c-.18,0-.44.07-.32-.14s0-.21.23-.21Zm9.3,0H25c.23,0,.19.14.19.22,0,.24-.26.18-.49.21a.26.26,0,0,1-.29-.37c0-.06.11-.07.22-.07Zm-11.79,0c.07,0,.13,0,.13.05a.28.28,0,0,1-.29.25c-.16,0-.38,0-.28-.12s0-.17.2-.17Zm.8,0c.08,0,.13,0,.13.06a.29.29,0,0,1-.3.27c-.17,0-.4.06-.29-.13s0-.19.2-.19Zm.85,0c.08,0,.14,0,.14.06a.32.32,0,0,1-.33.28c-.18,0-.44.06-.32-.14s0-.19.22-.19Zm11.11,0,.38,0c.23,0,.2.12.2.21s-.2.19-.46.19-.34-.12-.33-.35c0-.06.09-.07.21-.07Zm-14.23,0c.07,0,.11,0,.11,0a.23.23,0,0,1-.25.2c-.14,0-.34,0-.25-.1s0-.14.17-.14Zm.65,0c.06,0,.11,0,.11,0a.25.25,0,0,1-.26.23c-.14,0-.34,0-.24-.11s0-.16.17-.16Zm16.36,0h.14c.17,0,.11.15.12.22s-.17.18-.34.18a.23.23,0,0,1-.21-.31c0-.09.16-.09.29-.09Zm-1.78,0,.38,0c.24,0,.18.12.21.2s-.25.19-.49.19-.32-.15-.3-.34.09-.07.2-.07Zm2.57,0h.13c.17,0,.12.13.12.2s-.17.19-.34.19a.24.24,0,0,1-.22-.32c0-.07.17-.07.31-.07Zm-18.45,0c.07,0,.11,0,.11,0a.24.24,0,0,1-.26.2c-.13,0-.33,0-.24-.1s0-.13.17-.13Zm16.77,0h.28c.17,0,.12.11.13.18s-.22.21-.39.21-.15-.25-.16-.34,0-.06.14-.06Zm3,0h.26c.17,0,.13.13.15.19s-.18.1-.35.1-.23-.14-.21-.21S30.44,65.38,30.52,65.37Zm-20.43,0c.05,0,.1,0,.1,0a.21.21,0,0,1-.23.17c-.12,0-.3,0-.22-.08s0-.12.16-.12Zm19.66,0H30c.17,0,.13.1.14.17s-.19.17-.36.17a.22.22,0,0,1-.2-.3.2.2,0,0,1,.16-.05Zm-20.24,0s.06,0,.06,0a.14.14,0,0,1-.15.14c-.08,0-.19,0-.14-.07s0-.1.1-.1Zm21.8,0h.24c.15,0,.11.09.13.14s-.17.11-.32.11-.22-.14-.19-.22.07,0,.14,0Zm.75,0h.22c.15,0,.11.08.12.13s-.15.09-.29.09-.22-.12-.19-.19.07,0,.14,0Zm.76,0H33c.13,0,.09.08.1.13s-.13.08-.26.08-.19-.12-.16-.18.06,0,.12,0Zm.6,0h.2c.13,0,.1.07.11.12s-.13.07-.26.07-.2-.1-.17-.16.06,0,.12,0Zm.6,0h.2c.13,0,.1.07.11.11s-.13.07-.26.07-.2-.1-.17-.15.06,0,.12,0Zm.58,0a1,1,0,0,1,.17,0c.12,0,.09.06.11.09s-.12.06-.23.07-.18-.09-.16-.14,0,0,.11,0Zm.53,0h.12c.07,0,0,0,.06.08s-.09.06-.16.06-.11-.08-.09-.12,0,0,.07,0ZM34.2,66c.31,0,.43.38.23.66s-.59.37-.62.27.29-.29.3-.5,0-.43.09-.43ZM14.34,66a.38.38,0,0,1,.24.07c.13.13.15.85.21.94s-.33.08-.53,0-.38-1-.17-1l.25,0Zm2.49,0a.39.39,0,0,1,.26.09c.11.11.46.91.17.94s-.75.12-.77-.35-.14-.61.07-.65a1,1,0,0,1,.27,0Zm-1.27,0h.13c.15,0,.28.64.47.84s-.42.2-.65.16-.32-.71-.26-.86.17-.14.31-.14Zm-2.68,0a.4.4,0,0,1,.31.16c.08.1.42.66.12.83s-.52-.21-.54-.52-.08-.45.05-.46Zm-1,0c.1,0,.19,0,.21.14s-.08.55-.05.74-.1.16-.26,0-.3-.83-.08-.87Zm6,0a1.34,1.34,0,0,1,.58.11c.25.1.28.9.14.94s-.68,0-.72-.11-.31-.9-.15-.92l.15,0Zm9.38,0a1.77,1.77,0,0,1,.39,0c.2,0,0,.34.21.76s-.45.38-.68.28a1.84,1.84,0,0,1-.12-1,.3.3,0,0,1,.2-.06Zm3.61,0a2.51,2.51,0,0,1,.31,0c.13,0,.2.52.2.84s-.12.12-.59.16c-.19,0-.14-.19-.12-.46s-.08-.46,0-.5a.34.34,0,0,1,.25-.07Zm-20.4,0c.1,0,.34,0,.3.21s-.08.51-.1.58-.28.07-.35-.14-.16-.66.15-.65Zm15.92,0a1.42,1.42,0,0,1,.31,0c.16,0,.15.74.11.88s-.38.2-.61.13-.46-.93-.2-1A2,2,0,0,1,26.37,66.08Zm3.23,0a5,5,0,0,1,.52,0c.22,0,.08.8-.13.89s-.52.1-.52,0-.26-.78-.13-.91a.42.42,0,0,1,.26,0Zm-1.12,0c.22,0,.42,0,.45.09s.06.82-.13.86-.67.1-.66-.09-.34-.82-.19-.82l.53,0Zm4.11,0a1.18,1.18,0,0,1,.39.07c.31.12.12.53-.1.69a.78.78,0,0,1-.47.09c-.18-.09.11-.52.07-.75,0-.07,0-.1.11-.1Zm-9.76,0c.19,0,.37,0,.38.08a2.07,2.07,0,0,1,0,.74c0,.11-.33.08-.52,0s-.25-.68-.25-.77.18-.08.36-.08Zm-.86,0c.18,0,.36,0,.36.08s0,.69-.25.77-.48.08-.51,0a2.11,2.11,0,0,1,0-.75c0-.06.2-.09.38-.08Zm3.24,0h.17c.27,0,.33.84.28.91a1.15,1.15,0,0,1-.72,0c-.15-.05-.35-.85-.24-.9a2.11,2.11,0,0,1,.51,0Zm-1.47,0a3.65,3.65,0,0,1,.67,0c.19,0,.1.73,0,.8a1.07,1.07,0,0,1-.7,0c-.23-.07-.31-.81-.21-.84l.21,0Zm-4.31,0c.22,0,.57,0,.67,0s-.09.85-.23.9a1.15,1.15,0,0,1-.72,0c-.06-.07,0-.94.28-.91Zm1.29,0a2.29,2.29,0,0,1,.39,0c.1,0,.18.73,0,.8a1.06,1.06,0,0,1-.7,0c-.07-.07-.17-.75,0-.8a1.07,1.07,0,0,1,.33,0Z" class="cls-2"/></g></svg>