<svg xmlns="http://www.w3.org/2000/svg" viewBox="0 0 63.83 58.86"><defs><style>.cls-1{fill:#e2761b;stroke:#e2761b}.cls-1,.cls-10,.cls-2,.cls-3,.cls-4,.cls-5,.cls-6,.cls-7,.cls-8,.cls-9{stroke-linecap:round;stroke-linejoin:round;stroke-width:.24px}.cls-2{fill:#e4761b;stroke:#e4761b}.cls-3{fill:#d7c1b3;stroke:#d7c1b3}.cls-4{fill:#233447;stroke:#233447}.cls-5{fill:#cd6116;stroke:#cd6116}.cls-6{fill:#e4751f;stroke:#e4751f}.cls-7{fill:#f6851b;stroke:#f6851b}.cls-8{fill:#c0ad9e;stroke:#c0ad9e}.cls-9{fill:#161616;stroke:#161616}.cls-10{fill:#763d16;stroke:#763d16}</style></defs><g id="Layer_1" data-name="Layer 1"><polygon points="59.35 1.29 35.57 18.95 39.97 8.53 59.35 1.29" class="cls-1"/><polygon points="4.45 1.29 28.04 19.12 23.86 8.53 4.45 1.29" class="cls-2"/><polygon points="50.8 42.23 44.46 51.94 58.02 55.67 61.91 42.45 50.8 42.23" class="cls-2"/><polygon points="1.94 42.45 5.81 55.67 19.37 51.94 13.03 42.23 1.94 42.45" class="cls-2"/><polygon points="18.6 25.84 14.82 31.55 28.28 32.15 27.8 17.69 18.6 25.84" class="cls-2"/><polygon points="45.2 25.84 35.88 17.52 35.57 32.15 49.01 31.55 45.2 25.84" class="cls-2"/><polygon points="19.37 51.94 27.45 47.99 20.47 42.55 19.37 51.94" class="cls-2"/><polygon points="36.36 47.99 44.46 51.94 43.34 42.55 36.36 47.99" class="cls-2"/><polygon points="44.46 51.94 36.36 47.99 37.01 53.28 36.93 55.5 44.46 51.94" class="cls-3"/><polygon points="19.37 51.94 26.89 55.5 26.85 53.28 27.45 47.99 19.37 51.94" class="cls-3"/><polygon points="27.02 39.06 20.27 37.07 25.03 34.9 27.02 39.06" class="cls-4"/><polygon points="36.79 39.06 38.77 34.9 43.55 37.07 36.79 39.06" class="cls-4"/><polygon points="19.37 51.94 20.51 42.23 13.03 42.45 19.37 51.94" class="cls-5"/><polygon points="43.32 42.23 44.46 51.94 50.8 42.45 43.32 42.23" class="cls-5"/><polygon points="49.01 31.55 35.57 32.15 36.81 39.06 38.8 34.9 43.58 37.07 49.01 31.55" class="cls-5"/><polygon points="20.27 37.07 25.05 34.9 27.02 39.06 28.28 32.15 14.82 31.55 20.27 37.07" class="cls-5"/><polygon points="14.82 31.55 20.47 42.55 20.27 37.07 14.82 31.55" class="cls-6"/><polygon points="43.58 37.07 43.34 42.55 49.01 31.55 43.58 37.07" class="cls-6"/><polygon points="28.28 32.15 27.02 39.06 28.59 47.21 28.95 36.47 28.28 32.15" class="cls-6"/><polygon points="35.57 32.15 34.93 36.45 35.21 47.21 36.81 39.06 35.57 32.15" class="cls-6"/><polygon points="36.81 39.06 35.21 47.21 36.36 47.99 43.34 42.55 43.58 37.07 36.81 39.06" class="cls-7"/><polygon points="20.27 37.07 20.47 42.55 27.45 47.99 28.59 47.21 27.02 39.06 20.27 37.07" class="cls-7"/><polygon points="36.93 55.5 37.01 53.28 36.41 52.75 27.4 52.75 26.85 53.28 26.89 55.5 19.37 51.94 22 54.09 27.33 57.8 36.48 57.8 41.83 54.09 44.46 51.94 36.93 55.5" class="cls-8"/><polygon points="36.36 47.99 35.21 47.21 28.59 47.21 27.45 47.99 26.85 53.28 27.4 52.75 36.41 52.75 37.01 53.28 36.36 47.99" class="cls-9"/><polygon points="60.36 20.1 62.39 10.35 59.35 1.29 36.36 18.36 45.2 25.84 57.7 29.5 60.48 26.27 59.28 25.41 61.2 23.66 59.71 22.52 61.63 21.06 60.36 20.1" class="cls-10"/><polygon points="1.44 10.35 3.47 20.1 2.18 21.06 4.09 22.52 2.63 23.66 4.55 25.41 3.35 26.27 6.1 29.5 18.6 25.84 27.45 18.36 4.45 1.29 1.44 10.35" class="cls-10"/><polygon points="57.7 29.5 45.2 25.84 49.01 31.55 43.34 42.55 50.8 42.45 61.91 42.45 57.7 29.5" class="cls-7"/><polygon points="18.6 25.84 6.1 29.5 1.94 42.45 13.03 42.45 20.47 42.55 14.82 31.55 18.6 25.84" class="cls-7"/><polygon points="35.57 32.15 36.36 18.36 39.99 8.53 23.86 8.53 27.45 18.36 28.28 32.15 28.57 36.5 28.59 47.21 35.21 47.21 35.26 36.5 35.57 32.15" class="cls-7"/></g></svg>