<svg xmlns="http://www.w3.org/2000/svg" xmlns:xlink="http://www.w3.org/1999/xlink" version="1.1" viewBox="0 0 172 172"><g fill="none" fill-rule="nonzero" stroke="none" stroke-dashoffset="0" stroke-linecap="butt" stroke-linejoin="miter" stroke-miterlimit="10" stroke-width="1" font-family="none" font-size="none" font-weight="none" text-anchor="none" style="mix-blend-mode:normal"><path fill="none" d="M0,172v-172h172v172z"/><g fill="#2e3192"><path d="M86,0c-7.3131,0 -13.23077,5.91767 -13.23077,13.23077v66.15385c0,7.3131 5.91767,13.23077 13.23077,13.23077c7.3131,0 13.23077,-5.91767 13.23077,-13.23077v-66.15385c0,-7.3131 -5.91767,-13.23077 -13.23077,-13.23077zM38.65865,17.15865c-1.91226,0.23257 -3.69531,1.03365 -5.16827,2.27404c-19.66526,15.50481 -32.25,39.61478 -32.25,66.56731c0,46.69531 38.0643,84.75962 84.75962,84.75962c46.69531,0 84.75962,-38.0643 84.75962,-84.75962c0,-26.95253 -12.58474,-51.0625 -32.25,-66.56731c-4.28966,-3.4369 -10.51743,-2.73918 -13.95433,1.55048c-3.4369,4.28967 -2.73918,10.51743 1.55048,13.95433c15.09135,11.88702 24.80769,30.3119 24.80769,51.0625c0,35.97115 -28.94231,64.91346 -64.91346,64.91346c-35.97115,0 -64.91346,-28.94231 -64.91346,-64.91346c0,-20.7506 9.71635,-39.17548 24.80769,-51.0625c3.61779,-2.71334 4.9357,-7.49399 3.23017,-11.68029c-1.70553,-4.18629 -5.99519,-6.66706 -10.46574,-6.09856z"/></g></g></svg>